Commissioner-LoudBlackItalic.ufo
<glyph name="dollar" format="2">
  <advance width="1176"/>
  <unicode hex="0024"/>
  <outline>
    <contour>
      <point x="524" y="-30" type="curve" smooth="yes"/>
      <point x="890" y="-30"/>
      <point x="1050" y="76"/>
      <point x="1110" y="358" type="curve" smooth="yes"/>
      <point x="1158" y="584"/>
      <point x="1072" y="702"/>
      <point x="794" y="816" type="curve" smooth="yes"/>
      <point x="676" y="864"/>
      <point x="630" y="914"/>
      <point x="640" y="964" type="curve" smooth="yes"/>
      <point x="650" y="1010"/>
      <point x="694" y="1030"/>
      <point x="758" y="1030" type="curve" smooth="yes"/>
      <point x="790" y="1030"/>
      <point x="960" y="970"/>
      <point x="1120" y="902" type="curve"/>
      <point x="1238" y="1288" type="line"/>
      <point x="1072" y="1334"/>
      <point x="824" y="1400"/>
      <point x="694" y="1400" type="curve" smooth="yes"/>
      <point x="366" y="1400"/>
      <point x="210" y="1280"/>
      <point x="156" y="1018" type="curve" smooth="yes"/>
      <point x="102" y="756"/>
      <point x="228" y="634"/>
      <point x="438" y="550" type="curve" smooth="yes"/>
      <point x="564" y="500"/>
      <point x="636" y="454"/>
      <point x="626" y="402" type="curve" smooth="yes"/>
      <point x="616" y="356"/>
      <point x="592" y="332"/>
      <point x="504" y="332" type="curve" smooth="yes"/>
      <point x="470" y="332"/>
      <point x="278" y="400"/>
      <point x="96" y="476" type="curve"/>
      <point x="-20" y="74" type="line"/>
      <point x="176" y="22"/>
      <point x="420" y="-30"/>
    </contour>
    <contour>
      <point x="258" y="-274" type="curve"/>
      <point x="624" y="-274" type="line"/>
      <point x="652" y="-116"/>
      <point x="682" y="54"/>
      <point x="704" y="186" type="curve"/>
      <point x="372" y="186" type="line"/>
      <point x="340" y="56"/>
      <point x="298" y="-114"/>
    </contour>
    <contour>
      <point x="588" y="1208" type="curve"/>
      <point x="924" y="1208" type="line"/>
      <point x="952" y="1324"/>
      <point x="988" y="1470"/>
      <point x="1022" y="1606" type="curve"/>
      <point x="658" y="1606" type="line"/>
      <point x="634" y="1470"/>
      <point x="610" y="1328"/>
    </contour>
  </outline>
</glyph>
<glyph name="asterisk" format="2">
  <advance width="1026"/>
  <unicode hex="002A"/>
  <outline>
    <contour>
      <point x="874" y="610" type="curve"/>
      <point x="1070" y="826" type="line"/>
      <point x="940" y="914"/>
      <point x="806" y="1000"/>
      <point x="676" y="1088" type="curve"/>
      <point x="574" y="1208"/>
      <point x="474" y="1332"/>
      <point x="374" y="1452" type="curve"/>
      <point x="178" y="1234" type="line"/>
      <point x="308" y="1144"/>
      <point x="438" y="1060"/>
      <point x="572" y="970" type="curve"/>
      <point x="672" y="850"/>
      <point x="774" y="728"/>
    </contour>
    <contour>
      <point x="224" y="746" type="line"/>
      <point x="366" y="816"/>
      <point x="506" y="886"/>
      <point x="648" y="956" type="curve"/>
      <point x="802" y="982"/>
      <point x="958" y="1010"/>
      <point x="1112" y="1036" type="curve"/>
      <point x="1022" y="1316" type="line"/>
      <point x="882" y="1246"/>
      <point x="742" y="1176"/>
      <point x="600" y="1106" type="curve"/>
      <point x="446" y="1078"/>
      <point x="288" y="1052"/>
      <point x="134" y="1026" type="curve"/>
    </contour>
    <contour>
      <point x="382" y="604" type="curve"/>
      <point x="670" y="542" type="line"/>
      <point x="682" y="700"/>
      <point x="690" y="856"/>
      <point x="702" y="1014" type="curve"/>
      <point x="756" y="1162"/>
      <point x="810" y="1310"/>
      <point x="864" y="1458" type="curve"/>
      <point x="578" y="1518" type="line"/>
      <point x="566" y="1362"/>
      <point x="558" y="1204"/>
      <point x="546" y="1046" type="curve"/>
      <point x="492" y="898"/>
      <point x="436" y="752"/>
    </contour>
  </outline>
</glyph>
<glyph name="comma" format="2">
  <advance width="550"/>
  <unicode hex="002C"/>
  <outline>
    <contour>
      <point x="-152" y="-314" type="curve"/>
      <point x="70" y="-310" type="line"/>
      <point x="158" y="-226"/>
      <point x="400" y="24"/>
      <point x="424" y="150" type="curve" smooth="yes"/>
      <point x="450" y="290"/>
      <point x="418" y="406"/>
      <point x="274" y="440" type="curve"/>
      <point x="42" y="422" type="line"/>
      <point x="34" y="312"/>
      <point x="24" y="202"/>
      <point x="14" y="104" type="curve"/>
      <point x="-32" y="-22"/>
      <point x="-104" y="-198"/>
    </contour>
  </outline>
</glyph>
<glyph name="hyphen" format="2">
  <advance width="860"/>
  <unicode hex="002D"/>
  <outline>
    <contour>
      <point x="58" y="402" type="line"/>
      <point x="184" y="408"/>
      <point x="314" y="414"/>
      <point x="410" y="418" type="curve"/>
      <point x="506" y="414"/>
      <point x="632" y="408"/>
      <point x="758" y="402" type="curve"/>
      <point x="844" y="814" type="line"/>
      <point x="716" y="808"/>
      <point x="588" y="802"/>
      <point x="490" y="798" type="curve"/>
      <point x="396" y="802"/>
      <point x="268" y="808"/>
      <point x="144" y="814" type="curve"/>
    </contour>
  </outline>
</glyph>
<glyph name="slash" format="2">
  <advance width="970"/>
  <unicode hex="002F"/>
  <outline>
    <contour>
      <point x="-114" y="0" type="curve"/>
      <point x="394" y="0" type="line"/>
      <point x="466" y="148"/>
      <point x="524" y="272"/>
      <point x="612" y="456" type="curve"/>
      <point x="880" y="948" type="line"/>
      <point x="994" y="1136"/>
      <point x="1072" y="1264"/>
      <point x="1172" y="1426" type="curve"/>
      <point x="666" y="1426" type="line"/>
      <point x="592" y="1272"/>
      <point x="532" y="1144"/>
      <point x="440" y="954" type="curve"/>
      <point x="168" y="456" type="line"/>
      <point x="56" y="278"/>
      <point x="-20" y="152"/>
    </contour>
  </outline>
</glyph>
<glyph name="one" format="2">
  <advance width="980"/>
  <unicode hex="0031"/>
  <outline>
    <contour>
      <point x="184" y="734" type="line"/>
      <point x="356" y="810"/>
      <point x="528" y="886"/>
      <point x="704" y="964" type="curve"/>
      <point x="808" y="1392" type="line"/>
      <point x="586" y="1312"/>
      <point x="370" y="1234"/>
      <point x="150" y="1154" type="curve"/>
    </contour>
    <contour>
      <point x="238" y="0" type="curve"/>
      <point x="770" y="0" type="line"/>
      <point x="788" y="138"/>
      <point x="802" y="258"/>
      <point x="824" y="426" type="curve"/>
      <point x="924" y="898" type="line"/>
      <point x="968" y="1056"/>
      <point x="1014" y="1214"/>
      <point x="1060" y="1380" type="curve"/>
      <point x="808" y="1392" type="line"/>
      <point x="506" y="1194" type="line"/>
      <point x="484" y="1062"/>
      <point x="464" y="932"/>
      <point x="442" y="800" type="curve"/>
      <point x="364" y="426" type="line"/>
      <point x="314" y="258"/>
      <point x="280" y="138"/>
    </contour>
  </outline>
</glyph>
<glyph name="two" format="2">
  <advance width="1170"/>
  <unicode hex="0032"/>
  <outline>
    <contour>
      <point x="-30" y="0" type="line"/>
      <point x="996" y="0" type="line"/>
      <point x="1088" y="432" type="line"/>
      <point x="968" y="418"/>
      <point x="852" y="404"/>
      <point x="724" y="388" type="curve"/>
      <point x="508" y="388" type="line"/>
      <point x="552" y="292" type="line"/>
      <point x="746" y="410" type="line"/>
      <point x="1024" y="578"/>
      <point x="1144" y="716"/>
      <point x="1186" y="914" type="curve" smooth="yes"/>
      <point x="1248" y="1204"/>
      <point x="1064" y="1412"/>
      <point x="704" y="1412" type="curve" smooth="yes"/>
      <point x="612" y="1412"/>
      <point x="394" y="1362"/>
      <point x="238" y="1326" type="curve"/>
      <point x="184" y="870" type="line"/>
      <point x="316" y="930"/>
      <point x="558" y="1032"/>
      <point x="584" y="1032" type="curve"/>
      <point x="676" y="1026"/>
      <point x="726" y="980"/>
      <point x="708" y="900" type="curve" smooth="yes"/>
      <point x="678" y="762"/>
      <point x="504" y="634"/>
      <point x="252" y="456" type="curve"/>
      <point x="180" y="414"/>
      <point x="112" y="374"/>
      <point x="40" y="332" type="curve"/>
    </contour>
  </outline>
</glyph>
<glyph name="six" format="2">
  <advance width="1256"/>
  <unicode hex="0036"/>
  <outline>
    <contour>
      <point x="610" y="-32" type="curve" smooth="yes"/>
      <point x="974" y="-32"/>
      <point x="1130" y="168"/>
      <point x="1178" y="392" type="curve" smooth="yes"/>
      <point x="1238" y="676"/>
      <point x="1082" y="864"/>
      <point x="840" y="864" type="curve" smooth="yes"/>
      <point x="780" y="864"/>
      <point x="694" y="834"/>
      <point x="602" y="790" type="curve"/>
      <point x="562" y="790" type="line"/>
      <point x="430" y="676"/>
      <point x="420" y="648"/>
      <point x="512" y="528" type="curve"/>
      <point x="550" y="558"/>
      <point x="602" y="574"/>
      <point x="656" y="582" type="curve"/>
      <point x="720" y="574"/>
      <point x="758" y="530"/>
      <point x="742" y="460" type="curve" smooth="yes"/>
      <point x="728" y="388"/>
      <point x="678" y="356"/>
      <point x="624" y="348" type="curve"/>
      <point x="554" y="368"/>
      <point x="494" y="442"/>
      <point x="548" y="696" type="curve" smooth="yes"/>
      <point x="600" y="950"/>
      <point x="682" y="1024"/>
      <point x="842" y="1032" type="curve"/>
      <point x="862" y="1032"/>
      <point x="1062" y="968"/>
      <point x="1168" y="928" type="curve"/>
      <point x="1292" y="1332" type="line"/>
      <point x="1176" y="1360"/>
      <point x="916" y="1412"/>
      <point x="842" y="1412" type="curve" smooth="yes"/>
      <point x="524" y="1412"/>
      <point x="226" y="1294"/>
      <point x="112" y="752" type="curve" smooth="yes"/>
      <point x="10" y="272"/>
      <point x="188" y="-32"/>
    </contour>
  </outline>
</glyph>
<glyph name="less" format="2">
  <advance width="1180"/>
  <unicode hex="003C"/>
  <outline>
    <contour>
      <point x="1003" y="46" type="curve"/>
      <point x="1093" y="466" type="line"/>
      <point x="1003" y="490"/>
      <point x="915" y="514"/>
      <point x="825" y="538" type="curve"/>
      <point x="687" y="586" type="line"/>
      <point x="693" y="618" type="line"/>
      <point x="849" y="662" type="line"/>
      <point x="949" y="684"/>
      <point x="1049" y="708"/>
      <point x="1149" y="730" type="curve"/>
      <point x="1245" y="1190" type="line"/>
      <point x="1079" y="1128"/>
      <point x="929" y="1072"/>
      <point x="795" y="1022" type="curve"/>
      <point x="593" y="956" type="line"/>
      <point x="461" y="918"/>
      <point x="309" y="874"/>
      <point x="149" y="828" type="curve"/>
      <point x="59" y="408" type="line"/>
      <point x="199" y="362"/>
      <point x="333" y="318"/>
      <point x="449" y="280" type="curve"/>
      <point x="623" y="214" type="line"/>
      <point x="735" y="164"/>
      <point x="861" y="108"/>
    </contour>
  </outline>
</glyph>
<glyph name="greater" format="2">
  <advance width="1180"/>
  <unicode hex="003E"/>
  <outline>
    <contour>
      <point x="-16" y="46" type="line"/>
      <point x="150" y="108"/>
      <point x="300" y="164"/>
      <point x="434" y="214" type="curve"/>
      <point x="636" y="280" type="line"/>
      <point x="768" y="318"/>
      <point x="920" y="362"/>
      <point x="1080" y="408" type="curve"/>
      <point x="1170" y="828" type="line"/>
      <point x="1030" y="874"/>
      <point x="896" y="918"/>
      <point x="780" y="956" type="curve"/>
      <point x="606" y="1022" type="line"/>
      <point x="494" y="1072"/>
      <point x="368" y="1128"/>
      <point x="226" y="1190" type="curve"/>
      <point x="136" y="770" type="line"/>
      <point x="226" y="746"/>
      <point x="314" y="722"/>
      <point x="404" y="698" type="curve"/>
      <point x="542" y="650" type="line"/>
      <point x="536" y="618" type="line"/>
      <point x="380" y="574" type="line"/>
      <point x="280" y="552"/>
      <point x="180" y="528"/>
      <point x="80" y="506" type="curve"/>
    </contour>
  </outline>
</glyph>
<glyph name="at" format="2">
  <advance width="1804"/>
  <unicode hex="0040"/>
  <outline>
    <contour>
      <point x="984" y="-314" type="curve" smooth="yes"/>
      <point x="1116" y="-314"/>
      <point x="1364" y="-238"/>
      <point x="1552" y="-190" type="curve"/>
      <point x="1552" y="90" type="line"/>
      <point x="1306" y="-4"/>
      <point x="1054" y="-68"/>
      <point x="984" y="-74" type="curve"/>
      <point x="482" y="-64"/>
      <point x="254" y="238"/>
      <point x="352" y="676" type="curve" smooth="yes"/>
      <point x="416" y="964"/>
      <point x="606" y="1184"/>
      <point x="974" y="1194" type="curve"/>
      <point x="1356" y="1184"/>
      <point x="1572" y="968"/>
      <point x="1502" y="574" type="curve" smooth="yes"/>
      <point x="1496" y="540"/>
      <point x="1396" y="400"/>
      <point x="1336" y="372" type="curve"/>
      <point x="1270" y="380"/>
      <point x="1252" y="424"/>
      <point x="1288" y="594" type="curve"/>
      <point x="1304" y="668" type="line"/>
      <point x="1340" y="776"/>
      <point x="1376" y="882"/>
      <point x="1412" y="980" type="curve"/>
      <point x="1072" y="964" type="line"/>
      <point x="1036" y="872" type="line"/>
      <point x="1010" y="872" type="line"/>
      <point x="942" y="946"/>
      <point x="864" y="990"/>
      <point x="816" y="990" type="curve" smooth="yes"/>
      <point x="632" y="990"/>
      <point x="510" y="818"/>
      <point x="472" y="628" type="curve" smooth="yes"/>
      <point x="420" y="366"/>
      <point x="536" y="134"/>
      <point x="750" y="134" type="curve" smooth="yes"/>
      <point x="790" y="134"/>
      <point x="872" y="184"/>
      <point x="968" y="250" type="curve"/>
      <point x="992" y="250" type="line"/>
      <point x="1042" y="178"/>
      <point x="1170" y="118"/>
      <point x="1350" y="118" type="curve" smooth="yes"/>
      <point x="1442" y="118"/>
      <point x="1724" y="350"/>
      <point x="1758" y="522" type="curve" smooth="yes"/>
      <point x="1858" y="1030"/>
      <point x="1520" y="1434"/>
      <point x="978" y="1434" type="curve" smooth="yes"/>
      <point x="582" y="1434"/>
      <point x="202" y="1220"/>
      <point x="98" y="734" type="curve" smooth="yes"/>
      <point x="-24" y="166"/>
      <point x="312" y="-314"/>
    </contour>
    <contour>
      <point x="860" y="436" type="curve"/>
      <point x="818" y="440"/>
      <point x="796" y="504"/>
      <point x="808" y="564" type="curve" smooth="yes"/>
      <point x="822" y="632"/>
      <point x="860" y="676"/>
      <point x="910" y="682" type="curve"/>
      <point x="934" y="676"/>
      <point x="948" y="668"/>
      <point x="958" y="656" type="curve"/>
      <point x="920" y="478" type="line"/>
      <point x="902" y="452"/>
      <point x="886" y="446"/>
    </contour>
  </outline>
</glyph>
<glyph name="F" format="2">
  <advance width="1172"/>
  <unicode hex="0046"/>
  <outline>
    <contour>
      <point x="-42" y="0" type="curve"/>
      <point x="514" y="0" type="line"/>
      <point x="534" y="148"/>
      <point x="548" y="276"/>
      <point x="572" y="458" type="curve"/>
      <point x="658" y="868" type="line"/>
      <point x="712" y="1058"/>
      <point x="754" y="1192"/>
      <point x="798" y="1346" type="curve"/>
      <point x="814" y="1426" type="line"/>
      <point x="258" y="1426" type="line"/>
      <point x="238" y="1272"/>
      <point x="222" y="1146"/>
      <point x="196" y="948" type="curve"/>
      <point x="92" y="458" type="line"/>
      <point x="38" y="274"/>
      <point x="2" y="148"/>
    </contour>
    <contour>
      <point x="454" y="490" type="line"/>
      <point x="698" y="490" type="line"/>
      <point x="854" y="480"/>
      <point x="960" y="474"/>
      <point x="1074" y="468" type="curve"/>
      <point x="1166" y="900" type="line"/>
      <point x="1054" y="894"/>
      <point x="944" y="886"/>
      <point x="778" y="876" type="curve"/>
      <point x="534" y="876" type="line"/>
    </contour>
    <contour>
      <point x="598" y="1022" type="line"/>
      <point x="812" y="1022" type="line"/>
      <point x="980" y="1006"/>
      <point x="1094" y="996"/>
      <point x="1208" y="986" type="curve"/>
      <point x="1300" y="1426" type="line"/>
      <point x="682" y="1426" type="line"/>
    </contour>
  </outline>
</glyph>
<glyph name="G" format="2">
  <advance width="1444"/>
  <unicode hex="0047"/>
  <anchor x="680" y="0" name="bottom"/>
  <anchor x="980" y="1426" name="top"/>
  <outline>
    <contour>
      <point x="808" y="-30" type="curve" smooth="yes"/>
      <point x="922" y="-30"/>
      <point x="1138" y="6"/>
      <point x="1280" y="26" type="curve"/>
      <point x="1290" y="462" type="line"/>
      <point x="1134" y="418"/>
      <point x="900" y="354"/>
      <point x="840" y="354" type="curve"/>
      <point x="640" y="362"/>
      <point x="560" y="548"/>
      <point x="602" y="746" type="curve" smooth="yes"/>
      <point x="652" y="984"/>
      <point x="836" y="1042"/>
      <point x="930" y="1048" type="curve"/>
      <point x="968" y="1048"/>
      <point x="1188" y="986"/>
      <point x="1388" y="910" type="curve"/>
      <point x="1518" y="1360" type="line"/>
      <point x="1314" y="1410"/>
      <point x="1034" y="1458"/>
      <point x="942" y="1458" type="curve" smooth="yes"/>
      <point x="484" y="1458"/>
      <point x="202" y="1248"/>
      <point x="110" y="806" type="curve" smooth="yes"/>
      <point x="18" y="366"/>
      <point x="228" y="-30"/>
    </contour>
    <contour>
      <point x="782" y="26" type="curve"/>
      <point x="1280" y="26" type="line"/>
      <point x="1304" y="178"/>
      <point x="1320" y="294"/>
      <point x="1340" y="414" type="curve"/>
      <point x="1382" y="550"/>
      <point x="1416" y="650"/>
      <point x="1450" y="762" type="curve"/>
      <point x="916" y="762" type="line"/>
      <point x="906" y="650"/>
      <point x="896" y="550"/>
      <point x="882" y="414" type="curve"/>
      <point x="850" y="294"/>
      <point x="820" y="180"/>
    </contour>
  </outline>
</glyph>
<glyph name="J" format="2">
  <advance width="714"/>
  <unicode hex="004A"/>
  <anchor x="244" y="0" name="bottom"/>
  <anchor x="544" y="1426" name="top"/>
  <outline>
    <contour>
      <point x="-166" y="-304" type="curve"/>
      <point x="280" y="-304" type="line"/>
      <point x="362" y="-210"/>
      <point x="526" y="6"/>
      <point x="558" y="158" type="curve" smooth="yes"/>
      <point x="596" y="340"/>
      <point x="608" y="534"/>
      <point x="650" y="734" type="curve"/>
      <point x="696" y="948" type="line"/>
      <point x="752" y="1144"/>
      <point x="790" y="1272"/>
      <point x="834" y="1426" type="curve"/>
      <point x="266" y="1426" type="line"/>
      <point x="246" y="1272"/>
      <point x="230" y="1146"/>
      <point x="204" y="948" type="curve"/>
      <point x="158" y="734" type="line"/>
      <point x="30" y="162" type="line"/>
      <point x="-38" y="-2"/>
      <point x="-102" y="-154"/>
    </contour>
  </outline>
</glyph>
<glyph name="L" format="2">
  <advance width="1158"/>
  <unicode hex="004C"/>
  <anchor x="490" y="0" name="bottom"/>
  <anchor x="956" y="720" name="center"/>
  <anchor x="708" y="1426" name="top"/>
  <anchor x="758" y="1004" name="topright"/>
  <outline>
    <contour>
      <point x="-42" y="0" type="curve"/>
      <point x="526" y="0" type="line"/>
      <point x="544" y="80" type="line"/>
      <point x="548" y="228"/>
      <point x="564" y="356"/>
      <point x="602" y="538" type="curve"/>
      <point x="688" y="948" type="line"/>
      <point x="744" y="1144"/>
      <point x="782" y="1272"/>
      <point x="826" y="1426" type="curve"/>
      <point x="258" y="1426" type="line"/>
      <point x="238" y="1272"/>
      <point x="222" y="1146"/>
      <point x="196" y="948" type="curve"/>
      <point x="92" y="458" type="line"/>
      <point x="38" y="274"/>
      <point x="2" y="148"/>
    </contour>
    <contour>
      <point x="424" y="0" type="line"/>
      <point x="1004" y="0" type="line"/>
      <point x="1104" y="474" type="line"/>
      <point x="974" y="458"/>
      <point x="866" y="446"/>
      <point x="682" y="424" type="curve"/>
      <point x="514" y="424" type="line"/>
    </contour>
  </outline>
</glyph>
<glyph name="M" format="2">
  <advance width="1942"/>
  <unicode hex="004D"/>
  <anchor x="864" y="0" name="bottom"/>
  <anchor x="1164" y="1426" name="top"/>
  <outline>
    <contour>
      <point x="-76" y="0" type="curve"/>
      <point x="462" y="0" type="line"/>
      <point x="488" y="138"/>
      <point x="514" y="266"/>
      <point x="536" y="382" type="curve"/>
      <point x="618" y="624" type="line"/>
      <point x="650" y="624" type="line"/>
      <point x="680" y="366" type="line"/>
      <point x="680" y="246"/>
      <point x="678" y="116"/>
      <point x="678" y="0" type="curve"/>
      <point x="1072" y="0" type="line"/>
      <point x="1116" y="114"/>
      <point x="1162" y="242"/>
      <point x="1210" y="366" type="curve"/>
      <point x="1326" y="624" type="line"/>
      <point x="1358" y="624" type="line"/>
      <point x="1336" y="382" type="line"/>
      <point x="1310" y="268"/>
      <point x="1282" y="140"/>
      <point x="1252" y="0" type="curve"/>
      <point x="1806" y="0" type="line"/>
      <point x="1806" y="146"/>
      <point x="1806" y="284"/>
      <point x="1806" y="458" type="curve"/>
      <point x="1844" y="944" type="line"/>
      <point x="1870" y="1116"/>
      <point x="1892" y="1270"/>
      <point x="1914" y="1426" type="curve"/>
      <point x="1344" y="1426" type="line"/>
      <point x="1290" y="1296"/>
      <point x="1248" y="1192"/>
      <point x="1202" y="1080" type="curve"/>
      <point x="1038" y="754" type="line"/>
      <point x="1008" y="754" type="line"/>
      <point x="966" y="1080" type="line"/>
      <point x="962" y="1192"/>
      <point x="960" y="1302"/>
      <point x="956" y="1426" type="curve"/>
      <point x="404" y="1426" type="line"/>
      <point x="362" y="1270"/>
      <point x="320" y="1116"/>
      <point x="274" y="944" type="curve"/>
      <point x="112" y="458" type="line"/>
      <point x="42" y="288"/>
      <point x="-18" y="142"/>
    </contour>
  </outline>
</glyph>
<glyph name="N" format="2">
  <advance width="1512"/>
  <unicode hex="004E"/>
  <anchor x="652" y="0" name="bottom"/>
  <anchor x="952" y="1426" name="top"/>
  <outline>
    <contour>
      <point x="-42" y="0" type="curve"/>
      <point x="492" y="0" type="line"/>
      <point x="510" y="144"/>
      <point x="526" y="272"/>
      <point x="550" y="458" type="curve"/>
      <point x="590" y="648" type="line"/>
      <point x="622" y="648" type="line"/>
      <point x="724" y="400" type="line"/>
      <point x="768" y="254"/>
      <point x="804" y="132"/>
      <point x="842" y="0" type="curve"/>
      <point x="1342" y="0" type="line"/>
      <point x="1360" y="144"/>
      <point x="1376" y="272"/>
      <point x="1400" y="458" type="curve"/>
      <point x="1504" y="948" type="line"/>
      <point x="1560" y="1144"/>
      <point x="1598" y="1272"/>
      <point x="1642" y="1426" type="curve"/>
      <point x="1108" y="1426" type="line"/>
      <point x="1088" y="1272"/>
      <point x="1072" y="1146"/>
      <point x="1046" y="948" type="curve"/>
      <point x="1010" y="778" type="line"/>
      <point x="976" y="778" type="line"/>
      <point x="880" y="1024" type="line"/>
      <point x="850" y="1140"/>
      <point x="816" y="1268"/>
      <point x="774" y="1426" type="curve"/>
      <point x="258" y="1426" type="line"/>
      <point x="238" y="1272"/>
      <point x="222" y="1146"/>
      <point x="196" y="948" type="curve"/>
      <point x="92" y="458" type="line"/>
      <point x="38" y="274"/>
      <point x="2" y="148"/>
    </contour>
  </outline>
</glyph>
<glyph name="R" format="2">
  <advance width="1442"/>
  <unicode hex="0052"/>
  <anchor x="616" y="0" name="bottom"/>
  <anchor x="866" y="1426" name="top"/>
  <outline>
    <contour>
      <point x="742" y="0" type="curve"/>
      <point x="1354" y="0" type="line"/>
      <point x="1308" y="110"/>
      <point x="1234" y="288"/>
      <point x="1178" y="422" type="curve"/>
      <point x="1078" y="714" type="line"/>
      <point x="846" y="564" type="line"/>
      <point x="1176" y="564"/>
      <point x="1354" y="668"/>
      <point x="1410" y="930" type="curve" smooth="yes"/>
      <point x="1484" y="1276"/>
      <point x="1288" y="1440"/>
      <point x="914" y="1440" type="curve"/>
      <point x="704" y="1436"/>
      <point x="436" y="1430"/>
      <point x="258" y="1426" type="curve"/>
      <point x="546" y="1058" type="line"/>
      <point x="814" y="1058" type="line" smooth="yes"/>
      <point x="882" y="1058"/>
      <point x="916" y="1004"/>
      <point x="898" y="920" type="curve" smooth="yes"/>
      <point x="876" y="818"/>
      <point x="824" y="796"/>
      <point x="764" y="796" type="curve" smooth="yes"/>
      <point x="556" y="796" type="line"/>
      <point x="494" y="502" type="line"/>
      <point x="848" y="502" type="line"/>
      <point x="598" y="696" type="line"/>
      <point x="706" y="282" type="line"/>
      <point x="716" y="200"/>
      <point x="728" y="112"/>
    </contour>
    <contour>
      <point x="-42" y="0" type="curve"/>
      <point x="516" y="0" type="line"/>
      <point x="536" y="148"/>
      <point x="550" y="276"/>
      <point x="574" y="458" type="curve"/>
      <point x="660" y="868" type="line"/>
      <point x="714" y="1058"/>
      <point x="756" y="1192"/>
      <point x="800" y="1346" type="curve"/>
      <point x="258" y="1426" type="line"/>
      <point x="238" y="1272"/>
      <point x="222" y="1146"/>
      <point x="196" y="948" type="curve"/>
      <point x="92" y="458" type="line"/>
      <point x="38" y="274"/>
      <point x="2" y="148"/>
    </contour>
  </outline>
</glyph>
<glyph name="S" format="2">
  <advance width="1232"/>
  <unicode hex="0053"/>
  <anchor x="510" y="0" name="bottom"/>
  <anchor x="810" y="1426" name="top"/>
  <outline>
    <contour>
      <point x="560" y="-32" type="curve" smooth="yes"/>
      <point x="940" y="-32"/>
      <point x="1108" y="80"/>
      <point x="1170" y="376" type="curve" smooth="yes"/>
      <point x="1218" y="604"/>
      <point x="1132" y="732"/>
      <point x="836" y="850" type="curve" smooth="yes"/>
      <point x="708" y="902"/>
      <point x="662" y="952"/>
      <point x="672" y="1002" type="curve" smooth="yes"/>
      <point x="682" y="1050"/>
      <point x="728" y="1066"/>
      <point x="778" y="1070" type="curve"/>
      <point x="812" y="1070"/>
      <point x="1000" y="1010"/>
      <point x="1180" y="940" type="curve"/>
      <point x="1302" y="1364" type="line"/>
      <point x="1128" y="1402"/>
      <point x="866" y="1458"/>
      <point x="730" y="1458" type="curve" smooth="yes"/>
      <point x="378" y="1458"/>
      <point x="220" y="1326"/>
      <point x="166" y="1064" type="curve" smooth="yes"/>
      <point x="108" y="782"/>
      <point x="242" y="660"/>
      <point x="464" y="572" type="curve" smooth="yes"/>
      <point x="596" y="520"/>
      <point x="674" y="474"/>
      <point x="662" y="418" type="curve" smooth="yes"/>
      <point x="652" y="372"/>
      <point x="616" y="352"/>
      <point x="552" y="348" type="curve"/>
      <point x="516" y="348"/>
      <point x="302" y="416"/>
      <point x="100" y="494" type="curve"/>
      <point x="-14" y="82" type="line"/>
      <point x="192" y="26"/>
      <point x="450" y="-32"/>
    </contour>
  </outline>
</glyph>
<glyph name="U" format="2">
  <advance width="1452"/>
  <unicode hex="0055"/>
  <anchor x="622" y="0" name="bottom"/>
  <anchor x="924" y="0" name="ogonek"/>
  <anchor x="922" y="1426" name="top"/>
  <anchor x="1626" y="1426" name="topright"/>
  <outline>
    <contour>
      <point x="660" y="-32" type="curve" smooth="yes"/>
      <point x="1136" y="-32"/>
      <point x="1310" y="188"/>
      <point x="1380" y="508" type="curve" smooth="yes"/>
      <point x="1396" y="582"/>
      <point x="1428" y="782"/>
      <point x="1462" y="948" type="curve"/>
      <point x="1518" y="1144"/>
      <point x="1556" y="1272"/>
      <point x="1600" y="1426" type="curve"/>
      <point x="1032" y="1426" type="line"/>
      <point x="1012" y="1272"/>
      <point x="996" y="1146"/>
      <point x="970" y="948" type="curve"/>
      <point x="892" y="576" type="line" smooth="yes"/>
      <point x="864" y="446"/>
      <point x="804" y="374"/>
      <point x="698" y="364" type="curve"/>
      <point x="600" y="374"/>
      <point x="568" y="466"/>
      <point x="598" y="606" type="curve" smooth="yes"/>
      <point x="670" y="948" type="line"/>
      <point x="726" y="1144"/>
      <point x="764" y="1272"/>
      <point x="808" y="1426" type="curve"/>
      <point x="242" y="1426" type="line"/>
      <point x="222" y="1272"/>
      <point x="206" y="1146"/>
      <point x="180" y="948" type="curve"/>
      <point x="152" y="822"/>
      <point x="114" y="692"/>
      <point x="100" y="626" type="curve" smooth="yes"/>
      <point x="20" y="252"/>
      <point x="184" y="-32"/>
    </contour>
  </outline>
</glyph>
<glyph name="W" format="2">
  <advance width="2142"/>
  <unicode hex="0057"/>
  <anchor x="958" y="0" name="bottom"/>
  <anchor x="1258" y="1426" name="top"/>
  <outline>
    <contour>
      <point x="236" y="0" type="curve"/>
      <point x="856" y="0" type="line"/>
      <point x="888" y="120"/>
      <point x="926" y="264"/>
      <point x="956" y="376" type="curve"/>
      <point x="1078" y="716" type="line"/>
      <point x="1110" y="716" type="line"/>
      <point x="1094" y="376" type="line"/>
      <point x="1080" y="256"/>
      <point x="1064" y="120"/>
      <point x="1050" y="0" type="curve"/>
      <point x="1694" y="0" type="line"/>
      <point x="1748" y="134"/>
      <point x="1816" y="304"/>
      <point x="1874" y="450" type="curve"/>
      <point x="2078" y="900" type="line"/>
      <point x="2158" y="1050"/>
      <point x="2266" y="1254"/>
      <point x="2358" y="1426" type="curve"/>
      <point x="1718" y="1426" type="line"/>
      <point x="1684" y="1288"/>
      <point x="1646" y="1128"/>
      <point x="1610" y="984" type="curve"/>
      <point x="1484" y="584" type="line"/>
      <point x="1452" y="584" type="line"/>
      <point x="1480" y="980" type="line"/>
      <point x="1498" y="1122"/>
      <point x="1520" y="1286"/>
      <point x="1538" y="1426" type="curve"/>
      <point x="978" y="1426" type="line"/>
      <point x="938" y="1284"/>
      <point x="892" y="1120"/>
      <point x="854" y="984" type="curve"/>
      <point x="718" y="584" type="line"/>
      <point x="686" y="584" type="line"/>
      <point x="726" y="980" type="line"/>
      <point x="750" y="1122"/>
      <point x="778" y="1286"/>
      <point x="802" y="1426" type="curve"/>
      <point x="176" y="1426" type="line"/>
      <point x="196" y="1256"/>
      <point x="222" y="1056"/>
      <point x="240" y="900" type="curve"/>
      <point x="252" y="450" type="line"/>
      <point x="248" y="308"/>
      <point x="242" y="144"/>
    </contour>
  </outline>
</glyph>
<glyph name="X" format="2">
  <advance width="1516"/>
  <unicode hex="0058"/>
  <outline>
    <contour>
      <point x="-106" y="0" type="curve"/>
      <point x="556" y="0" type="line"/>
      <point x="584" y="80"/>
      <point x="614" y="164"/>
      <point x="640" y="236" type="curve"/>
      <point x="728" y="414" type="line"/>
      <point x="760" y="414" type="line"/>
      <point x="784" y="236" type="line"/>
      <point x="786" y="168"/>
      <point x="788" y="88"/>
      <point x="788" y="0" type="curve"/>
      <point x="1416" y="0" type="line"/>
      <point x="1352" y="152"/>
      <point x="1294" y="288"/>
      <point x="1230" y="440" type="curve"/>
      <point x="1134" y="754" type="line"/>
      <point x="1110" y="634" type="line"/>
      <point x="1344" y="988" type="line"/>
      <point x="1438" y="1106"/>
      <point x="1554" y="1254"/>
      <point x="1690" y="1426" type="curve"/>
      <point x="1026" y="1426" type="line"/>
      <point x="990" y="1330"/>
      <point x="958" y="1238"/>
      <point x="928" y="1160" type="curve"/>
      <point x="852" y="1004" type="line"/>
      <point x="820" y="1004" type="line"/>
      <point x="798" y="1160" type="line"/>
      <point x="796" y="1234"/>
      <point x="796" y="1328"/>
      <point x="794" y="1426" type="curve"/>
      <point x="188" y="1426" type="line"/>
      <point x="252" y="1258"/>
      <point x="302" y="1124"/>
      <point x="354" y="988" type="curve"/>
      <point x="436" y="690" type="line"/>
      <point x="462" y="800" type="line"/>
      <point x="220" y="430" type="line"/>
      <point x="106" y="280"/>
      <point x="6" y="148"/>
    </contour>
  </outline>
</glyph>
<glyph name="bracketleft" format="2">
  <advance width="890"/>
  <unicode hex="005B"/>
  <outline>
    <contour>
      <point x="-82" y="-260" type="curve"/>
      <point x="388" y="-260" type="line"/>
      <point x="404" y="-180" type="line"/>
      <point x="424" y="-32"/>
      <point x="438" y="96"/>
      <point x="462" y="278" type="curve"/>
      <point x="616" y="1008" type="line"/>
      <point x="670" y="1198"/>
      <point x="710" y="1332"/>
      <point x="754" y="1486" type="curve"/>
      <point x="772" y="1566" type="line"/>
      <point x="302" y="1566" type="line"/>
      <point x="278" y="1408"/>
      <point x="260" y="1284"/>
      <point x="234" y="1088" type="curve"/>
      <point x="46" y="198" type="line"/>
      <point x="-4" y="16"/>
      <point x="-42" y="-116"/>
    </contour>
    <contour>
      <point x="298" y="-260" type="line"/>
      <point x="670" y="-260" type="line"/>
      <point x="748" y="112" type="line"/>
      <point x="658" y="104"/>
      <point x="570" y="96"/>
      <point x="456" y="86" type="curve"/>
      <point x="370" y="86" type="line"/>
    </contour>
    <contour>
      <point x="576" y="1220" type="line"/>
      <point x="670" y="1220" type="line"/>
      <point x="796" y="1210"/>
      <point x="884" y="1202"/>
      <point x="966" y="1194" type="curve"/>
      <point x="1044" y="1566" type="line"/>
      <point x="650" y="1566" type="line"/>
    </contour>
  </outline>
</glyph>
<glyph name="asciicircum" format="2">
  <advance width="1316"/>
  <unicode hex="005E"/>
  <outline>
    <contour>
      <point x="932" y="678" type="curve"/>
      <point x="1284" y="682" type="line"/>
      <point x="1222" y="914"/>
      <point x="1160" y="1148"/>
      <point x="1098" y="1380" type="curve"/>
      <point x="508" y="1380" type="line"/>
      <point x="376" y="1150"/>
      <point x="242" y="916"/>
      <point x="110" y="686" type="curve"/>
      <point x="506" y="686" type="line"/>
      <point x="590" y="796"/>
      <point x="666" y="896"/>
      <point x="750" y="1006" type="curve"/>
      <point x="780" y="1006" type="line"/>
      <point x="830" y="898"/>
      <point x="882" y="786"/>
    </contour>
  </outline>
</glyph>
<glyph name="a" format="2">
  <advance width="1066"/>
  <unicode hex="0061"/>
  <anchor x="424" y="0" name="bottom"/>
  <anchor x="882" y="0" name="ogonek"/>
  <anchor x="636" y="1004" name="top"/>
  <outline>
    <contour>
      <point x="226" y="-28" type="curve" smooth="yes"/>
      <point x="268" y="-28"/>
      <point x="392" y="48"/>
      <point x="502" y="130" type="curve"/>
      <point x="530" y="130" type="line"/>
      <point x="534" y="0" type="line"/>
      <point x="944" y="0" type="line"/>
      <point x="948" y="138"/>
      <point x="954" y="266"/>
      <point x="960" y="376" type="curve"/>
      <point x="972" y="424" type="line"/>
      <point x="986" y="488"/>
      <point x="1010" y="552"/>
      <point x="1024" y="626" type="curve" smooth="yes"/>
      <point x="1072" y="884"/>
      <point x="908" y="1036"/>
      <point x="598" y="1036" type="curve" smooth="yes"/>
      <point x="542" y="1036"/>
      <point x="286" y="998"/>
      <point x="180" y="982" type="curve"/>
      <point x="112" y="600" type="line"/>
      <point x="236" y="630"/>
      <point x="442" y="678"/>
      <point x="464" y="678" type="curve" smooth="yes"/>
      <point x="580" y="678"/>
      <point x="620" y="636"/>
      <point x="612" y="606" type="curve"/>
      <point x="338" y="568" type="line" smooth="yes"/>
      <point x="176" y="546"/>
      <point x="32" y="486"/>
      <point x="-8" y="300" type="curve" smooth="yes"/>
      <point x="-46" y="120"/>
      <point x="46" y="-28"/>
    </contour>
    <contour>
      <point x="470" y="306" type="curve" smooth="yes"/>
      <point x="438" y="306"/>
      <point x="404" y="330"/>
      <point x="412" y="376" type="curve" smooth="yes"/>
      <point x="420" y="422"/>
      <point x="462" y="436"/>
      <point x="494" y="446" type="curve" smooth="yes"/>
      <point x="542" y="460"/>
      <point x="560" y="468"/>
      <point x="582" y="492" type="curve"/>
      <point x="552" y="358" type="line"/>
      <point x="522" y="330"/>
      <point x="480" y="306"/>
    </contour>
  </outline>
</glyph>
<glyph name="d" format="2">
  <advance width="1188"/>
  <unicode hex="0064"/>
  <anchor x="538" y="0" name="bottom"/>
  <anchor x="592" y="502" name="center"/>
  <anchor x="846" y="1466" name="top"/>
  <anchor x="1260" y="1004" name="topright"/>
  <outline>
    <contour>
      <point x="328" y="-32" type="curve" smooth="yes"/>
      <point x="398" y="-32"/>
      <point x="502" y="22"/>
      <point x="610" y="104" type="curve"/>
      <point x="636" y="104" type="line"/>
      <point x="638" y="0" type="line"/>
      <point x="1046" y="0" type="line"/>
      <point x="1064" y="138"/>
      <point x="1078" y="258"/>
      <point x="1100" y="426" type="curve"/>
      <point x="1218" y="986" type="line"/>
      <point x="1276" y="1178"/>
      <point x="1326" y="1350"/>
      <point x="1374" y="1504" type="curve"/>
      <point x="804" y="1464" type="line"/>
      <point x="796" y="1298"/>
      <point x="786" y="1144"/>
      <point x="774" y="986" type="curve"/>
      <point x="760" y="916" type="line"/>
      <point x="728" y="916" type="line"/>
      <point x="644" y="990"/>
      <point x="554" y="1036"/>
      <point x="492" y="1036" type="curve" smooth="yes"/>
      <point x="260" y="1036"/>
      <point x="108" y="822"/>
      <point x="48" y="540" type="curve" smooth="yes"/>
      <point x="-16" y="236"/>
      <point x="68" y="-32"/>
    </contour>
    <contour>
      <point x="566" y="338" type="curve"/>
      <point x="504" y="344"/>
      <point x="480" y="434"/>
      <point x="496" y="508" type="curve" smooth="yes"/>
      <point x="514" y="594"/>
      <point x="562" y="652"/>
      <point x="630" y="660" type="curve"/>
      <point x="660" y="654"/>
      <point x="684" y="640"/>
      <point x="698" y="624" type="curve"/>
      <point x="650" y="394" type="line"/>
      <point x="628" y="364"/>
      <point x="598" y="346"/>
    </contour>
  </outline>
</glyph>
<glyph name="e" format="2">
  <advance width="1052"/>
  <unicode hex="0065"/>
  <anchor x="442" y="0" name="bottom"/>
  <anchor x="794" y="0" name="ogonek"/>
  <anchor x="654" y="1004" name="top"/>
  <outline>
    <contour>
      <point x="572" y="-32" type="curve" smooth="yes"/>
      <point x="656" y="-32"/>
      <point x="798" y="-6"/>
      <point x="898" y="22" type="curve"/>
      <point x="956" y="392" type="line"/>
      <point x="830" y="352"/>
      <point x="716" y="326"/>
      <point x="676" y="326" type="curve" smooth="yes"/>
      <point x="524" y="326"/>
      <point x="424" y="362"/>
      <point x="450" y="504" type="curve"/>
      <point x="466" y="576" type="line"/>
      <point x="496" y="692"/>
      <point x="550" y="746"/>
      <point x="602" y="754" type="curve"/>
      <point x="656" y="746"/>
      <point x="672" y="676"/>
      <point x="650" y="598" type="curve" smooth="yes"/>
      <point x="646" y="584"/>
      <point x="640" y="564"/>
      <point x="634" y="546" type="curve"/>
      <point x="986" y="436" type="line"/>
      <point x="1000" y="474"/>
      <point x="1010" y="510"/>
      <point x="1022" y="562" type="curve" smooth="yes"/>
      <point x="1092" y="868"/>
      <point x="936" y="1036"/>
      <point x="592" y="1036" type="curve" smooth="yes"/>
      <point x="290" y="1036"/>
      <point x="102" y="840"/>
      <point x="44" y="548" type="curve" smooth="yes"/>
      <point x="-28" y="184"/>
      <point x="186" y="-32"/>
    </contour>
    <contour>
      <point x="186" y="436" type="line"/>
      <point x="986" y="436" type="line"/>
      <point x="1020" y="596" type="line"/>
      <point x="770" y="620" type="line"/>
      <point x="220" y="600" type="line"/>
    </contour>
  </outline>
</glyph>
<glyph name="f" format="2">
  <advance width="850"/>
  <unicode hex="0066"/>
  <outline>
    <contour>
      <point x="22" y="0" type="curve"/>
      <point x="538" y="0" type="line"/>
      <point x="556" y="138"/>
      <point x="570" y="258"/>
      <point x="592" y="426" type="curve"/>
      <point x="700" y="940" type="line"/>
      <point x="718" y="1004" type="line"/>
      <point x="700" y="1024"/>
      <point x="674" y="1060"/>
      <point x="676" y="1072" type="curve" smooth="yes"/>
      <point x="684" y="1110"/>
      <point x="734" y="1140"/>
      <point x="780" y="1140" type="curve" smooth="yes"/>
      <point x="804" y="1140"/>
      <point x="868" y="1124"/>
      <point x="958" y="1098" type="curve"/>
      <point x="1064" y="1464" type="line"/>
      <point x="968" y="1480"/>
      <point x="824" y="1498"/>
      <point x="760" y="1498" type="curve" smooth="yes"/>
      <point x="548" y="1498"/>
      <point x="336" y="1414"/>
      <point x="268" y="1108" type="curve" smooth="yes"/>
      <point x="242" y="982"/>
      <point x="200" y="678"/>
      <point x="170" y="526" type="curve"/>
      <point x="148" y="426" type="line"/>
      <point x="98" y="258"/>
      <point x="64" y="138"/>
    </contour>
    <contour>
      <point x="54" y="642" type="line"/>
      <point x="328" y="686" type="line"/>
      <point x="532" y="686" type="line"/>
      <point x="636" y="672"/>
      <point x="732" y="658"/>
      <point x="844" y="642" type="curve"/>
      <point x="920" y="1004" type="line"/>
      <point x="130" y="1004" type="line"/>
    </contour>
  </outline>
</glyph>
<glyph name="l" format="2">
  <advance width="604"/>
  <unicode hex="006C"/>
  <anchor x="196" y="0" name="bottom"/>
  <anchor x="380" y="818" name="center"/>
  <anchor x="488" y="1466" name="top"/>
  <anchor x="658" y="1004" name="topright"/>
  <outline>
    <contour>
      <point x="-62" y="0" type="curve"/>
      <point x="454" y="0" type="line"/>
      <point x="472" y="138"/>
      <point x="486" y="258"/>
      <point x="508" y="426" type="curve"/>
      <point x="626" y="986" type="line"/>
      <point x="684" y="1178"/>
      <point x="734" y="1350"/>
      <point x="782" y="1504" type="curve"/>
      <point x="212" y="1464" type="line"/>
      <point x="204" y="1298"/>
      <point x="194" y="1144"/>
      <point x="182" y="986" type="curve"/>
      <point x="64" y="426" type="line"/>
      <point x="14" y="258"/>
      <point x="-20" y="138"/>
    </contour>
  </outline>
</glyph>
<glyph name="n" format="2">
  <advance width="1204"/>
  <unicode hex="006E"/>
  <anchor x="492" y="0" name="bottom"/>
  <anchor x="704" y="1004" name="top"/>
  <outline>
    <contour>
      <point x="-54" y="0" type="curve"/>
      <point x="462" y="0" type="line"/>
      <point x="480" y="138"/>
      <point x="494" y="258"/>
      <point x="510" y="400" type="curve"/>
      <point x="548" y="582" type="line"/>
      <point x="572" y="606"/>
      <point x="632" y="636"/>
      <point x="642" y="636" type="curve" smooth="yes"/>
      <point x="690" y="636"/>
      <point x="698" y="578"/>
      <point x="674" y="476" type="curve"/>
      <point x="660" y="400" type="line"/>
      <point x="620" y="258"/>
      <point x="586" y="138"/>
      <point x="546" y="0" type="curve"/>
      <point x="1058" y="0" type="line"/>
      <point x="1076" y="138"/>
      <point x="1088" y="258"/>
      <point x="1110" y="426" type="curve"/>
      <point x="1126" y="504"/>
      <point x="1156" y="594"/>
      <point x="1168" y="652" type="curve" smooth="yes"/>
      <point x="1216" y="880"/>
      <point x="1122" y="1036"/>
      <point x="912" y="1036" type="curve" smooth="yes"/>
      <point x="840" y="1036"/>
      <point x="706" y="968"/>
      <point x="590" y="882" type="curve"/>
      <point x="556" y="882" type="line"/>
      <point x="562" y="1024" type="line"/>
      <point x="136" y="1004" type="line"/>
      <point x="120" y="838"/>
      <point x="108" y="684"/>
      <point x="94" y="526" type="curve"/>
      <point x="72" y="426" type="line"/>
      <point x="22" y="258"/>
      <point x="-12" y="138"/>
    </contour>
  </outline>
</glyph>
<glyph name="p" format="2">
  <advance width="1204"/>
  <unicode hex="0070"/>
  <outline>
    <contour>
      <point x="-136" y="-396" type="curve"/>
      <point x="392" y="-384" type="line"/>
      <point x="406" y="-246"/>
      <point x="416" y="-126"/>
      <point x="430" y="16" type="curve"/>
      <point x="444" y="82" type="line"/>
      <point x="466" y="82" type="line"/>
      <point x="554" y="12"/>
      <point x="648" y="-32"/>
      <point x="714" y="-32" type="curve" smooth="yes"/>
      <point x="946" y="-32"/>
      <point x="1098" y="182"/>
      <point x="1158" y="464" type="curve" smooth="yes"/>
      <point x="1222" y="768"/>
      <point x="1138" y="1036"/>
      <point x="878" y="1036" type="curve" smooth="yes"/>
      <point x="812" y="1036"/>
      <point x="706" y="982"/>
      <point x="606" y="888" type="curve"/>
      <point x="570" y="888" type="line"/>
      <point x="580" y="1024" type="line"/>
      <point x="136" y="1004" type="line"/>
      <point x="120" y="838"/>
      <point x="108" y="684"/>
      <point x="94" y="526" type="curve"/>
      <point x="-8" y="42" type="line"/>
      <point x="-56" y="-126"/>
      <point x="-96" y="-258"/>
    </contour>
    <contour>
      <point x="576" y="344" type="curve"/>
      <point x="546" y="350"/>
      <point x="522" y="364"/>
      <point x="508" y="380" type="curve"/>
      <point x="556" y="610" type="line"/>
      <point x="578" y="640"/>
      <point x="608" y="658"/>
      <point x="640" y="666" type="curve"/>
      <point x="702" y="660"/>
      <point x="726" y="570"/>
      <point x="710" y="496" type="curve" smooth="yes"/>
      <point x="692" y="410"/>
      <point x="644" y="352"/>
    </contour>
  </outline>
</glyph>
<glyph name="q" format="2">
  <advance width="1180"/>
  <unicode hex="0071"/>
  <outline>
    <contour>
      <point x="448" y="-396" type="curve"/>
      <point x="964" y="-384" type="line"/>
      <point x="982" y="-246"/>
      <point x="996" y="-126"/>
      <point x="1018" y="42" type="curve"/>
      <point x="1122" y="526" type="line"/>
      <point x="1170" y="690"/>
      <point x="1222" y="852"/>
      <point x="1278" y="1024" type="curve"/>
      <point x="838" y="1004" type="line"/>
      <point x="794" y="888" type="line"/>
      <point x="762" y="888" type="line"/>
      <point x="666" y="980"/>
      <point x="562" y="1036"/>
      <point x="492" y="1036" type="curve" smooth="yes"/>
      <point x="260" y="1036"/>
      <point x="108" y="822"/>
      <point x="48" y="540" type="curve" smooth="yes"/>
      <point x="-16" y="236"/>
      <point x="68" y="-32"/>
      <point x="328" y="-32" type="curve" smooth="yes"/>
      <point x="384" y="-32"/>
      <point x="468" y="12"/>
      <point x="552" y="78" type="curve"/>
      <point x="582" y="78" type="line"/>
      <point x="568" y="16" type="line"/>
      <point x="528" y="-126"/>
      <point x="488" y="-258"/>
    </contour>
    <contour>
      <point x="566" y="338" type="curve"/>
      <point x="504" y="344"/>
      <point x="480" y="434"/>
      <point x="496" y="508" type="curve" smooth="yes"/>
      <point x="514" y="594"/>
      <point x="562" y="652"/>
      <point x="630" y="660" type="curve"/>
      <point x="660" y="654"/>
      <point x="684" y="640"/>
      <point x="698" y="624" type="curve"/>
      <point x="650" y="394" type="line"/>
      <point x="628" y="364"/>
      <point x="598" y="346"/>
    </contour>
  </outline>
</glyph>
<glyph name="r" format="2">
  <advance width="876"/>
  <unicode hex="0072"/>
  <anchor x="186" y="0" name="bottom"/>
  <anchor x="580" y="1004" name="top"/>
  <outline>
    <contour>
      <point x="-54" y="0" type="curve"/>
      <point x="462" y="0" type="line"/>
      <point x="480" y="138"/>
      <point x="494" y="258"/>
      <point x="510" y="400" type="curve"/>
      <point x="538" y="524" type="line"/>
      <point x="578" y="560"/>
      <point x="666" y="590"/>
      <point x="686" y="590" type="curve" smooth="yes"/>
      <point x="704" y="590"/>
      <point x="758" y="576"/>
      <point x="828" y="556" type="curve"/>
      <point x="964" y="1016" type="line"/>
      <point x="922" y="1028"/>
      <point x="866" y="1036"/>
      <point x="852" y="1036" type="curve" smooth="yes"/>
      <point x="766" y="1036"/>
      <point x="704" y="992"/>
      <point x="590" y="882" type="curve"/>
      <point x="556" y="882" type="line"/>
      <point x="562" y="1024" type="line"/>
      <point x="136" y="1004" type="line"/>
      <point x="120" y="838"/>
      <point x="108" y="684"/>
      <point x="94" y="526" type="curve"/>
      <point x="72" y="426" type="line"/>
      <point x="22" y="258"/>
      <point x="-12" y="138"/>
    </contour>
  </outline>
</glyph>
<glyph name="u" format="2">
  <advance width="1190"/>
  <unicode hex="0075"/>
  <anchor x="486" y="0" name="bottom"/>
  <anchor x="1024" y="0" name="ogonek"/>
  <anchor x="696" y="1004" name="top"/>
  <anchor x="1256" y="1004" name="topright"/>
  <outline>
    <contour>
      <point x="280" y="-32" type="curve" smooth="yes"/>
      <point x="352" y="-32"/>
      <point x="486" y="36"/>
      <point x="602" y="122" type="curve"/>
      <point x="636" y="122" type="line"/>
      <point x="630" y="0" type="line"/>
      <point x="1036" y="0" type="line"/>
      <point x="1054" y="138"/>
      <point x="1066" y="258"/>
      <point x="1088" y="426" type="curve"/>
      <point x="1114" y="546" type="line"/>
      <point x="1170" y="746"/>
      <point x="1204" y="866"/>
      <point x="1244" y="1004" type="curve"/>
      <point x="734" y="1004" type="line"/>
      <point x="718" y="866"/>
      <point x="702" y="746"/>
      <point x="682" y="604" type="curve"/>
      <point x="642" y="412" type="line"/>
      <point x="618" y="388"/>
      <point x="558" y="358"/>
      <point x="548" y="358" type="curve" smooth="yes"/>
      <point x="500" y="358"/>
      <point x="490" y="416"/>
      <point x="514" y="518" type="curve" smooth="yes"/>
      <point x="532" y="604" type="line"/>
      <point x="572" y="746"/>
      <point x="610" y="878"/>
      <point x="650" y="1016" type="curve"/>
      <point x="132" y="1004" type="line"/>
      <point x="116" y="866"/>
      <point x="100" y="746"/>
      <point x="76" y="546" type="curve"/>
      <point x="60" y="468"/>
      <point x="42" y="410"/>
      <point x="30" y="352" type="curve" smooth="yes"/>
      <point x="-18" y="124"/>
      <point x="70" y="-32"/>
    </contour>
  </outline>
</glyph>
<glyph name="x" format="2">
  <advance width="1226"/>
  <unicode hex="0078"/>
  <outline>
    <contour>
      <point x="-106" y="0" type="curve"/>
      <point x="464" y="0" type="line"/>
      <point x="482" y="64"/>
      <point x="494" y="108"/>
      <point x="512" y="176" type="curve"/>
      <point x="560" y="294" type="line"/>
      <point x="586" y="294" type="line"/>
      <point x="594" y="166" type="line"/>
      <point x="592" y="104"/>
      <point x="590" y="58"/>
      <point x="588" y="0" type="curve"/>
      <point x="1128" y="0" type="line"/>
      <point x="1068" y="136"/>
      <point x="1030" y="224"/>
      <point x="986" y="322" type="curve"/>
      <point x="896" y="568" type="line"/>
      <point x="902" y="482" type="line"/>
      <point x="1076" y="702" type="line"/>
      <point x="1160" y="802"/>
      <point x="1218" y="870"/>
      <point x="1330" y="1004" type="curve"/>
      <point x="758" y="1004" type="line"/>
      <point x="736" y="940"/>
      <point x="720" y="892"/>
      <point x="698" y="824" type="curve"/>
      <point x="646" y="706" type="line"/>
      <point x="616" y="706" type="line"/>
      <point x="604" y="826" type="line"/>
      <point x="604" y="894"/>
      <point x="604" y="950"/>
      <point x="604" y="1016" type="curve"/>
      <point x="98" y="1004" type="line"/>
      <point x="148" y="878"/>
      <point x="180" y="800"/>
      <point x="220" y="700" type="curve"/>
      <point x="292" y="482" type="line"/>
      <point x="310" y="568" type="line"/>
      <point x="146" y="328" type="line"/>
      <point x="62" y="218"/>
      <point x="2" y="140"/>
    </contour>
  </outline>
</glyph>
<glyph name="y" format="2">
  <advance width="1166"/>
  <unicode hex="0079"/>
  <anchor x="916" y="0" name="bottom"/>
  <anchor x="688" y="1004" name="top"/>
  <outline>
    <contour>
      <point x="-52" y="-396" type="curve"/>
      <point x="496" y="-384" type="line"/>
      <point x="570" y="-240"/>
      <point x="660" y="-70"/>
      <point x="792" y="184" type="curve"/>
      <point x="956" y="466" type="line"/>
      <point x="1104" y="716"/>
      <point x="1180" y="842"/>
      <point x="1276" y="1004" type="curve"/>
      <point x="738" y="1004" type="line"/>
      <point x="708" y="892"/>
      <point x="680" y="786"/>
      <point x="650" y="674" type="curve"/>
      <point x="576" y="460" type="line"/>
      <point x="544" y="460" type="line"/>
      <point x="554" y="676" type="line"/>
      <point x="568" y="792"/>
      <point x="582" y="900"/>
      <point x="596" y="1016" type="curve"/>
      <point x="90" y="1004" type="line"/>
      <point x="116" y="860"/>
      <point x="142" y="708"/>
      <point x="168" y="564" type="curve"/>
      <point x="190" y="384" type="line"/>
      <point x="198" y="246"/>
      <point x="208" y="108"/>
      <point x="216" y="-30" type="curve"/>
      <point x="252" y="60" type="line"/>
      <point x="154" y="-86"/>
      <point x="46" y="-250"/>
    </contour>
  </outline>
</glyph>
<glyph name="currency" format="2">
  <advance width="1368"/>
  <unicode hex="00A4"/>
  <outline>
    <contour>
      <point x="676" y="150" type="curve" smooth="yes"/>
      <point x="966" y="150"/>
      <point x="1156" y="272"/>
      <point x="1218" y="562" type="curve" smooth="yes"/>
      <point x="1280" y="856"/>
      <point x="1074" y="1126"/>
      <point x="742" y="1126" type="curve" smooth="yes"/>
      <point x="452" y="1126"/>
      <point x="264" y="1004"/>
      <point x="202" y="714" type="curve" smooth="yes"/>
      <point x="140" y="420"/>
      <point x="344" y="150"/>
    </contour>
    <contour>
      <point x="314" y="-22" type="line"/>
      <point x="420" y="84"/>
      <point x="526" y="192"/>
      <point x="608" y="274" type="curve"/>
      <point x="340" y="558" type="line"/>
      <point x="254" y="484"/>
      <point x="138" y="386"/>
      <point x="26" y="288" type="curve"/>
    </contour>
    <contour>
      <point x="704" y="506" type="curve"/>
      <point x="620" y="518"/>
      <point x="566" y="584"/>
      <point x="582" y="662" type="curve" smooth="yes"/>
      <point x="594" y="722"/>
      <point x="644" y="766"/>
      <point x="722" y="776" type="curve"/>
      <point x="810" y="762"/>
      <point x="858" y="692"/>
      <point x="844" y="622" type="curve" smooth="yes"/>
      <point x="830" y="548"/>
      <point x="780" y="510"/>
    </contour>
    <contour>
      <point x="380" y="720" type="curve"/>
      <point x="658" y="978" type="line"/>
      <point x="582" y="1064"/>
      <point x="484" y="1180"/>
      <point x="386" y="1294" type="curve"/>
      <point x="84" y="1012" type="line"/>
      <point x="190" y="906"/>
      <point x="300" y="800"/>
    </contour>
    <contour>
      <point x="1042" y="-14" type="curve"/>
      <point x="1344" y="268" type="line"/>
      <point x="1238" y="374"/>
      <point x="1128" y="480"/>
      <point x="1048" y="560" type="curve"/>
      <point x="770" y="302" type="line"/>
      <point x="846" y="216"/>
      <point x="944" y="100"/>
    </contour>
    <contour>
      <point x="1088" y="722" type="line"/>
      <point x="1174" y="796"/>
      <point x="1290" y="894"/>
      <point x="1402" y="992" type="curve"/>
      <point x="1114" y="1302" type="line"/>
      <point x="1008" y="1196"/>
      <point x="902" y="1088"/>
      <point x="820" y="1006" type="curve"/>
    </contour>
  </outline>
</glyph>
<glyph name="ordfeminine" format="2">
  <advance width="828"/>
  <unicode hex="00AA"/>
  <outline>
    <contour>
      <point x="316" y="652" type="curve" smooth="yes"/>
      <point x="348" y="652"/>
      <point x="440" y="706"/>
      <point x="528" y="772" type="curve"/>
      <point x="550" y="772" type="line"/>
      <point x="552" y="672" type="line"/>
      <point x="850" y="672" type="line"/>
      <point x="854" y="770"/>
      <point x="858" y="854"/>
      <point x="864" y="952" type="curve"/>
      <point x="872" y="990" type="line" smooth="yes"/>
      <point x="884" y="1044"/>
      <point x="898" y="1082"/>
      <point x="912" y="1150" type="curve" smooth="yes"/>
      <point x="952" y="1342"/>
      <point x="822" y="1458"/>
      <point x="594" y="1458" type="curve" smooth="yes"/>
      <point x="552" y="1458"/>
      <point x="364" y="1430"/>
      <point x="278" y="1416" type="curve"/>
      <point x="230" y="1138" type="line"/>
      <point x="368" y="1172"/>
      <point x="482" y="1198"/>
      <point x="496" y="1198" type="curve" smooth="yes"/>
      <point x="584" y="1198"/>
      <point x="620" y="1164"/>
      <point x="612" y="1134" type="curve"/>
      <point x="400" y="1104" type="line" smooth="yes"/>
      <point x="290" y="1088"/>
      <point x="168" y="1050"/>
      <point x="136" y="900" type="curve" smooth="yes"/>
      <point x="106" y="756"/>
      <point x="184" y="652"/>
    </contour>
    <contour>
      <point x="492" y="894" type="curve" smooth="yes"/>
      <point x="462" y="894"/>
      <point x="434" y="916"/>
      <point x="442" y="956" type="curve" smooth="yes"/>
      <point x="450" y="992"/>
      <point x="482" y="1004"/>
      <point x="512" y="1012" type="curve" smooth="yes"/>
      <point x="556" y="1024"/>
      <point x="576" y="1034"/>
      <point x="590" y="1050" type="curve"/>
      <point x="566" y="942" type="line"/>
      <point x="542" y="918"/>
      <point x="504" y="894"/>
    </contour>
  </outline>
</glyph>
<glyph name="logicalnot" format="2">
  <advance width="1180"/>
  <unicode hex="00AC"/>
  <outline>
    <contour>
      <point x="604" y="88" type="curve"/>
      <point x="1028" y="88" type="line"/>
      <point x="1054" y="238"/>
      <point x="1080" y="388"/>
      <point x="1100" y="500" type="curve"/>
      <point x="1168" y="824" type="line"/>
      <point x="1018" y="818"/>
      <point x="864" y="812"/>
      <point x="750" y="808" type="curve"/>
      <point x="562" y="808" type="line"/>
      <point x="448" y="812"/>
      <point x="298" y="818"/>
      <point x="148" y="824" type="curve"/>
      <point x="60" y="412" type="line"/>
      <point x="212" y="418"/>
      <point x="366" y="424"/>
      <point x="480" y="428" type="curve"/>
      <point x="668" y="428" type="line"/>
      <point x="766" y="424"/>
      <point x="894" y="418"/>
      <point x="1020" y="412" type="curve"/>
      <point x="750" y="700" type="line"/>
      <point x="708" y="502" type="line"/>
      <point x="680" y="390"/>
      <point x="642" y="240"/>
    </contour>
  </outline>
</glyph>
<glyph name="plusminus" format="2">
  <advance width="1180"/>
  <unicode hex="00B1"/>
  <outline>
    <contour>
      <point x="-30" y="-16" type="line"/>
      <point x="122" y="-10"/>
      <point x="274" y="-4"/>
      <point x="390" y="0" type="curve"/>
      <point x="578" y="0" type="line"/>
      <point x="690" y="-4"/>
      <point x="842" y="-10"/>
      <point x="990" y="-16" type="curve"/>
      <point x="1078" y="396" type="line"/>
      <point x="926" y="390"/>
      <point x="772" y="384"/>
      <point x="658" y="380" type="curve"/>
      <point x="470" y="380" type="line"/>
      <point x="356" y="384"/>
      <point x="206" y="390"/>
      <point x="58" y="396" type="curve"/>
    </contour>
    <contour>
      <point x="128" y="732" type="line"/>
      <point x="280" y="738"/>
      <point x="434" y="744"/>
      <point x="548" y="748" type="curve"/>
      <point x="736" y="748" type="line"/>
      <point x="850" y="744"/>
      <point x="1000" y="738"/>
      <point x="1148" y="732" type="curve"/>
      <point x="1236" y="1144" type="line"/>
      <point x="1086" y="1138"/>
      <point x="932" y="1132"/>
      <point x="818" y="1128" type="curve"/>
      <point x="630" y="1128" type="line"/>
      <point x="516" y="1132"/>
      <point x="366" y="1138"/>
      <point x="216" y="1144" type="curve"/>
    </contour>
    <contour>
      <point x="364" y="448" type="curve"/>
      <point x="790" y="448" type="line"/>
      <point x="816" y="598"/>
      <point x="842" y="750"/>
      <point x="862" y="864" type="curve"/>
      <point x="894" y="1012" type="line"/>
      <point x="922" y="1126"/>
      <point x="960" y="1278"/>
      <point x="998" y="1428" type="curve"/>
      <point x="572" y="1428" type="line"/>
      <point x="546" y="1278"/>
      <point x="520" y="1126"/>
      <point x="500" y="1012" type="curve"/>
      <point x="468" y="864" type="line"/>
      <point x="440" y="750"/>
      <point x="402" y="598"/>
    </contour>
  </outline>
</glyph>
<glyph name="paragraph" format="2">
  <advance width="1228"/>
  <unicode hex="00B6"/>
  <outline>
    <contour>
      <point x="512" y="528" type="curve" smooth="yes"/>
      <point x="554" y="528" type="line"/>
      <point x="664" y="1426" type="line"/>
      <point x="618" y="1426" type="line" smooth="yes"/>
      <point x="352" y="1426"/>
      <point x="190" y="1276"/>
      <point x="138" y="1024" type="curve" smooth="yes"/>
      <point x="86" y="770"/>
      <point x="224" y="528"/>
    </contour>
    <contour>
      <point x="236" y="-354" type="curve"/>
      <point x="538" y="-354" type="line"/>
      <point x="582" y="-118"/>
      <point x="620" y="88"/>
      <point x="660" y="306" type="curve"/>
      <point x="758" y="766" type="line"/>
      <point x="812" y="984"/>
      <point x="864" y="1192"/>
      <point x="922" y="1426" type="curve"/>
      <point x="638" y="1426" type="line"/>
      <point x="588" y="1190"/>
      <point x="544" y="984"/>
      <point x="498" y="766" type="curve"/>
      <point x="400" y="306" type="line"/>
      <point x="346" y="88"/>
      <point x="294" y="-120"/>
    </contour>
    <contour>
      <point x="622" y="-354" type="curve"/>
      <point x="924" y="-354" type="line"/>
      <point x="966" y="-118"/>
      <point x="1002" y="88"/>
      <point x="1040" y="306" type="curve"/>
      <point x="1138" y="766" type="line"/>
      <point x="1192" y="984"/>
      <point x="1244" y="1192"/>
      <point x="1302" y="1426" type="curve"/>
      <point x="994" y="1426" type="line"/>
      <point x="952" y="1190"/>
      <point x="916" y="984"/>
      <point x="878" y="766" type="curve"/>
      <point x="780" y="306" type="line"/>
      <point x="728" y="88"/>
      <point x="678" y="-120"/>
    </contour>
    <contour>
      <point x="730" y="1186" type="line"/>
      <point x="918" y="1186" type="line"/>
      <point x="1030" y="1182"/>
      <point x="1182" y="1176"/>
      <point x="1330" y="1170" type="curve"/>
      <point x="1384" y="1426" type="line"/>
      <point x="1234" y="1426"/>
      <point x="1082" y="1426"/>
      <point x="968" y="1426" type="curve"/>
      <point x="780" y="1426" type="line"/>
    </contour>
  </outline>
</glyph>
<glyph name="ordmasculine" format="2">
  <advance width="928"/>
  <unicode hex="00BA"/>
  <outline>
    <contour>
      <point x="550" y="648" type="curve" smooth="yes"/>
      <point x="794" y="648"/>
      <point x="948" y="786"/>
      <point x="996" y="1010" type="curve" smooth="yes"/>
      <point x="1046" y="1240"/>
      <point x="912" y="1458"/>
      <point x="612" y="1458" type="curve" smooth="yes"/>
      <point x="366" y="1458"/>
      <point x="214" y="1324"/>
      <point x="166" y="1094" type="curve" smooth="yes"/>
      <point x="118" y="862"/>
      <point x="244" y="648"/>
    </contour>
    <contour>
      <point x="558" y="906" type="curve"/>
      <point x="500" y="914"/>
      <point x="472" y="984"/>
      <point x="488" y="1064" type="curve" smooth="yes"/>
      <point x="504" y="1146"/>
      <point x="550" y="1194"/>
      <point x="606" y="1200" type="curve"/>
      <point x="668" y="1190"/>
      <point x="688" y="1116"/>
      <point x="672" y="1040" type="curve" smooth="yes"/>
      <point x="656" y="960"/>
      <point x="614" y="914"/>
    </contour>
  </outline>
</glyph>
<glyph name="AE" format="2">
  <advance width="2050"/>
  <unicode hex="00C6"/>
  <anchor x="1076" y="0" name="bottom"/>
  <anchor x="1376" y="1426" name="top"/>
  <outline>
    <contour>
      <point x="-114" y="0" type="curve"/>
      <point x="478" y="0" type="line"/>
      <point x="538" y="138"/>
      <point x="604" y="290"/>
      <point x="664" y="428" type="curve"/>
      <point x="994" y="1040" type="line"/>
      <point x="1058" y="1040" type="line"/>
      <point x="1370" y="1040" type="line"/>
      <point x="1506" y="1426" type="line"/>
      <point x="730" y="1426" type="line"/>
      <point x="658" y="1286"/>
      <point x="580" y="1134"/>
      <point x="498" y="974" type="curve"/>
      <point x="206" y="482" type="line"/>
      <point x="106" y="332"/>
      <point x="-10" y="156"/>
    </contour>
    <contour>
      <point x="442" y="232" type="line"/>
      <point x="1088" y="232" type="line"/>
      <point x="1116" y="592" type="line"/>
      <point x="572" y="592" type="line"/>
    </contour>
    <contour>
      <point x="798" y="0" type="curve"/>
      <point x="1354" y="0" type="line"/>
      <point x="1372" y="80" type="line"/>
      <point x="1390" y="222"/>
      <point x="1408" y="364"/>
      <point x="1430" y="538" type="curve"/>
      <point x="1500" y="870" type="line"/>
      <point x="1556" y="1064"/>
      <point x="1594" y="1194"/>
      <point x="1638" y="1346" type="curve"/>
      <point x="1654" y="1426" type="line"/>
      <point x="1098" y="1426" type="line"/>
      <point x="1078" y="1272"/>
      <point x="1062" y="1146"/>
      <point x="1036" y="948" type="curve"/>
      <point x="932" y="458" type="line"/>
      <point x="878" y="274"/>
      <point x="842" y="150"/>
    </contour>
    <contour>
      <point x="1264" y="0" type="line"/>
      <point x="1864" y="0" type="line"/>
      <point x="1954" y="422" type="line"/>
      <point x="1844" y="412"/>
      <point x="1694" y="398"/>
      <point x="1560" y="386" type="curve"/>
      <point x="1346" y="386" type="line"/>
    </contour>
    <contour>
      <point x="1316" y="542" type="line"/>
      <point x="1560" y="542" type="line"/>
      <point x="1696" y="534"/>
      <point x="1838" y="526"/>
      <point x="1938" y="520" type="curve"/>
      <point x="2020" y="910" type="line"/>
      <point x="1926" y="904"/>
      <point x="1798" y="896"/>
      <point x="1632" y="886" type="curve"/>
      <point x="1388" y="886" type="line"/>
    </contour>
    <contour>
      <point x="1452" y="1040" type="line"/>
      <point x="1666" y="1040" type="line"/>
      <point x="1820" y="1026"/>
      <point x="1952" y="1014"/>
      <point x="2062" y="1004" type="curve"/>
      <point x="2150" y="1426" type="line"/>
      <point x="1532" y="1426" type="line"/>
    </contour>
  </outline>
</glyph>
<glyph name="Oslash" format="2">
  <advance width="1622"/>
  <unicode hex="00D8"/>
  <anchor x="706" y="0" name="bottom"/>
  <anchor x="856" y="714" name="center"/>
  <anchor x="1040" y="0" name="ogonek"/>
  <anchor x="1006" y="1426" name="top"/>
  <anchor x="242" y="1426" name="topleft"/>
  <anchor x="1586" y="1426" name="topright"/>
  <outline>
    <contour>
      <point x="800" y="-32" type="curve" smooth="yes"/>
      <point x="1246" y="-32"/>
      <point x="1518" y="238"/>
      <point x="1602" y="630" type="curve" smooth="yes"/>
      <point x="1698" y="1076"/>
      <point x="1454" y="1458"/>
      <point x="912" y="1458" type="curve" smooth="yes"/>
      <point x="466" y="1458"/>
      <point x="194" y="1206"/>
      <point x="110" y="806" type="curve" smooth="yes"/>
      <point x="18" y="370"/>
      <point x="238" y="-32"/>
    </contour>
    <contour>
      <point x="808" y="364" type="curve"/>
      <point x="648" y="388"/>
      <point x="564" y="544"/>
      <point x="608" y="746" type="curve" smooth="yes"/>
      <point x="648" y="932"/>
      <point x="756" y="1042"/>
      <point x="906" y="1062" type="curve"/>
      <point x="1078" y="1038"/>
      <point x="1142" y="874"/>
      <point x="1100" y="680" type="curve" smooth="yes"/>
      <point x="1058" y="482"/>
      <point x="950" y="380"/>
    </contour>
    <contour>
      <point x="286" y="-192" type="line"/>
      <point x="430" y="-16"/>
      <point x="562" y="146"/>
      <point x="722" y="342" type="curve"/>
      <point x="1176" y="864" type="line"/>
      <point x="1346" y="1046"/>
      <point x="1486" y="1196"/>
      <point x="1650" y="1372" type="curve"/>
      <point x="1396" y="1572" type="line"/>
      <point x="1246" y="1388"/>
      <point x="1118" y="1230"/>
      <point x="958" y="1032" type="curve"/>
      <point x="514" y="522" type="line"/>
      <point x="342" y="338"/>
      <point x="210" y="196"/>
      <point x="46" y="20" type="curve"/>
    </contour>
  </outline>
</glyph>
<glyph name="eth" format="2">
  <advance width="1196"/>
  <unicode hex="00F0"/>
  <outline>
    <contour>
      <point x="554" y="-32" type="curve" smooth="yes"/>
      <point x="924" y="-32"/>
      <point x="1096" y="190"/>
      <point x="1164" y="520" type="curve" smooth="yes"/>
      <point x="1226" y="826"/>
      <point x="1162" y="1094"/>
      <point x="1010" y="1294" type="curve"/>
      <point x="938" y="1376"/>
      <point x="862" y="1458"/>
      <point x="788" y="1534" type="curve"/>
      <point x="358" y="1428" type="line"/>
      <point x="462" y="1326"/>
      <point x="552" y="1236"/>
      <point x="638" y="1152" type="curve"/>
      <point x="736" y="992"/>
      <point x="772" y="814"/>
      <point x="738" y="638" type="curve" smooth="yes"/>
      <point x="694" y="404"/>
      <point x="636" y="330"/>
      <point x="566" y="322" type="curve"/>
      <point x="492" y="330"/>
      <point x="466" y="404"/>
      <point x="480" y="468" type="curve" smooth="yes"/>
      <point x="494" y="532"/>
      <point x="548" y="580"/>
      <point x="620" y="588" type="curve"/>
      <point x="648" y="582"/>
      <point x="698" y="560"/>
      <point x="740" y="524" type="curve"/>
      <point x="854" y="610"/>
      <point x="850" y="742"/>
      <point x="766" y="866" type="curve"/>
      <point x="718" y="832" type="line"/>
      <point x="620" y="870"/>
      <point x="538" y="894"/>
      <point x="472" y="894" type="curve" smooth="yes"/>
      <point x="280" y="894"/>
      <point x="98" y="800"/>
      <point x="40" y="528" type="curve" smooth="yes"/>
      <point x="-34" y="178"/>
      <point x="208" y="-32"/>
    </contour>
    <contour>
      <point x="408" y="924" type="line"/>
      <point x="546" y="982"/>
      <point x="668" y="1030"/>
      <point x="778" y="1076" type="curve"/>
      <point x="880" y="1112" type="line"/>
      <point x="996" y="1146"/>
      <point x="1130" y="1186"/>
      <point x="1266" y="1226" type="curve"/>
      <point x="1194" y="1510" type="line"/>
      <point x="1060" y="1456"/>
      <point x="932" y="1404"/>
      <point x="824" y="1360" type="curve"/>
      <point x="716" y="1322" type="line"/>
      <point x="600" y="1288"/>
      <point x="474" y="1250"/>
      <point x="334" y="1210" type="curve"/>
    </contour>
  </outline>
</glyph>
<glyph name="divide" format="2">
  <advance width="1180"/>
  <unicode hex="00F7"/>
  <outline>
    <contour>
      <point x="60" y="412" type="line"/>
      <point x="212" y="418"/>
      <point x="366" y="424"/>
      <point x="480" y="428" type="curve"/>
      <point x="668" y="428" type="line"/>
      <point x="782" y="424"/>
      <point x="932" y="418"/>
      <point x="1080" y="412" type="curve"/>
      <point x="1168" y="824" type="line"/>
      <point x="1018" y="818"/>
      <point x="864" y="812"/>
      <point x="750" y="808" type="curve"/>
      <point x="562" y="808" type="line"/>
      <point x="448" y="812"/>
      <point x="298" y="818"/>
      <point x="148" y="824" type="curve"/>
    </contour>
    <contour>
      <point x="500" y="-12" type="curve" smooth="yes"/>
      <point x="630" y="-12"/>
      <point x="696" y="50"/>
      <point x="720" y="168" type="curve" smooth="yes"/>
      <point x="742" y="276"/>
      <point x="682" y="382"/>
      <point x="532" y="382" type="curve" smooth="yes"/>
      <point x="386" y="382"/>
      <point x="336" y="322"/>
      <point x="316" y="228" type="curve" smooth="yes"/>
      <point x="288" y="100"/>
      <point x="356" y="-12"/>
    </contour>
    <contour>
      <point x="684" y="854" type="curve" smooth="yes"/>
      <point x="814" y="854"/>
      <point x="880" y="916"/>
      <point x="904" y="1034" type="curve" smooth="yes"/>
      <point x="926" y="1142"/>
      <point x="866" y="1248"/>
      <point x="716" y="1248" type="curve" smooth="yes"/>
      <point x="570" y="1248"/>
      <point x="520" y="1188"/>
      <point x="500" y="1094" type="curve" smooth="yes"/>
      <point x="472" y="966"/>
      <point x="540" y="854"/>
    </contour>
  </outline>
</glyph>
<glyph name="thorn" format="2">
  <advance width="1196"/>
  <unicode hex="00FE"/>
  <outline>
    <contour>
      <point x="-146" y="-396" type="curve"/>
      <point x="382" y="-384" type="line"/>
      <point x="396" y="-246"/>
      <point x="406" y="-126"/>
      <point x="420" y="16" type="curve"/>
      <point x="434" y="82" type="line"/>
      <point x="456" y="82" type="line"/>
      <point x="544" y="12"/>
      <point x="638" y="-32"/>
      <point x="704" y="-32" type="curve" smooth="yes"/>
      <point x="938" y="-32"/>
      <point x="1090" y="182"/>
      <point x="1150" y="464" type="curve" smooth="yes"/>
      <point x="1214" y="768"/>
      <point x="1130" y="1036"/>
      <point x="884" y="1036" type="curve" smooth="yes"/>
      <point x="812" y="1036"/>
      <point x="724" y="984"/>
      <point x="638" y="894" type="curve"/>
      <point x="606" y="894" type="line"/>
      <point x="626" y="986" type="line"/>
      <point x="684" y="1178"/>
      <point x="734" y="1350"/>
      <point x="782" y="1504" type="curve"/>
      <point x="212" y="1464" type="line"/>
      <point x="204" y="1298"/>
      <point x="194" y="1144"/>
      <point x="182" y="986" type="curve"/>
      <point x="-18" y="42" type="line"/>
      <point x="-66" y="-126"/>
      <point x="-106" y="-258"/>
    </contour>
    <contour>
      <point x="568" y="344" type="curve"/>
      <point x="538" y="350"/>
      <point x="514" y="364"/>
      <point x="500" y="380" type="curve"/>
      <point x="548" y="610" type="line"/>
      <point x="570" y="640"/>
      <point x="600" y="658"/>
      <point x="632" y="666" type="curve"/>
      <point x="694" y="660"/>
      <point x="718" y="570"/>
      <point x="702" y="496" type="curve" smooth="yes"/>
      <point x="684" y="410"/>
      <point x="636" y="352"/>
    </contour>
  </outline>
</glyph>
<glyph name="dcroat" format="2">
  <advance width="1188"/>
  <unicode hex="0111"/>
  <outline>
    <contour>
      <point x="548" y="1080" type="line"/>
      <point x="676" y="1086"/>
      <point x="796" y="1094"/>
      <point x="904" y="1100" type="curve"/>
      <point x="1000" y="1100" type="line"/>
      <point x="1104" y="1094"/>
      <point x="1224" y="1088"/>
      <point x="1348" y="1080" type="curve"/>
      <point x="1410" y="1382" type="line"/>
      <point x="1284" y="1382"/>
      <point x="1164" y="1382"/>
      <point x="1058" y="1382" type="curve"/>
      <point x="962" y="1382" type="line"/>
      <point x="860" y="1388"/>
      <point x="742" y="1394"/>
      <point x="616" y="1402" type="curve"/>
    </contour>
    <contour>
      <point x="328" y="-32" type="curve" smooth="yes"/>
      <point x="398" y="-32"/>
      <point x="502" y="22"/>
      <point x="610" y="104" type="curve"/>
      <point x="636" y="104" type="line"/>
      <point x="638" y="0" type="line"/>
      <point x="1046" y="0" type="line"/>
      <point x="1064" y="138"/>
      <point x="1078" y="258"/>
      <point x="1100" y="426" type="curve"/>
      <point x="1218" y="986" type="line"/>
      <point x="1258" y="1178"/>
      <point x="1294" y="1346"/>
      <point x="1326" y="1500" type="curve"/>
      <point x="804" y="1464" type="line"/>
      <point x="796" y="1298"/>
      <point x="786" y="1144"/>
      <point x="774" y="986" type="curve"/>
      <point x="760" y="916" type="line"/>
      <point x="728" y="916" type="line"/>
      <point x="644" y="990"/>
      <point x="554" y="1036"/>
      <point x="492" y="1036" type="curve" smooth="yes"/>
      <point x="260" y="1036"/>
      <point x="108" y="822"/>
      <point x="48" y="540" type="curve" smooth="yes"/>
      <point x="-16" y="236"/>
      <point x="68" y="-32"/>
    </contour>
    <contour>
      <point x="566" y="338" type="curve"/>
      <point x="504" y="344"/>
      <point x="480" y="434"/>
      <point x="496" y="508" type="curve" smooth="yes"/>
      <point x="514" y="594"/>
      <point x="562" y="652"/>
      <point x="630" y="660" type="curve"/>
      <point x="660" y="654"/>
      <point x="684" y="640"/>
      <point x="698" y="624" type="curve"/>
      <point x="650" y="394" type="line"/>
      <point x="628" y="364"/>
      <point x="598" y="346"/>
    </contour>
  </outline>
</glyph>
<glyph name="idotless" format="2">
  <advance width="608"/>
  <unicode hex="0131"/>
  <anchor x="198" y="0" name="bottom"/>
  <anchor x="444" y="0" name="ogonek"/>
  <anchor x="410" y="1004" name="top"/>
  <outline>
    <contour>
      <point x="-60" y="0" type="curve"/>
      <point x="456" y="0" type="line"/>
      <point x="474" y="138"/>
      <point x="488" y="258"/>
      <point x="510" y="426" type="curve"/>
      <point x="532" y="526" type="line"/>
      <point x="596" y="746"/>
      <point x="632" y="866"/>
      <point x="672" y="1004" type="curve"/>
      <point x="148" y="1004" type="line"/>
      <point x="130" y="866"/>
      <point x="116" y="746"/>
      <point x="88" y="526" type="curve"/>
      <point x="66" y="426" type="line"/>
      <point x="16" y="258"/>
      <point x="-18" y="138"/>
    </contour>
  </outline>
</glyph>
<glyph name="kgreenlandic" format="2">
  <advance width="1228"/>
  <unicode hex="0138"/>
  <outline>
    <contour>
      <point x="582" y="0" type="curve"/>
      <point x="1146" y="0" type="line"/>
      <point x="1082" y="126"/>
      <point x="1016" y="254"/>
      <point x="952" y="380" type="curve"/>
      <point x="838" y="642" type="line"/>
      <point x="902" y="452" type="line"/>
      <point x="1038" y="634" type="line"/>
      <point x="1138" y="758"/>
      <point x="1236" y="880"/>
      <point x="1336" y="1004" type="curve"/>
      <point x="762" y="1004" type="line"/>
      <point x="728" y="924"/>
      <point x="694" y="846"/>
      <point x="660" y="766" type="curve"/>
      <point x="590" y="636" type="line"/>
      <point x="514" y="636" type="line"/>
      <point x="454" y="352" type="line"/>
      <point x="534" y="352" type="line"/>
      <point x="562" y="216" type="line"/>
      <point x="570" y="144"/>
      <point x="576" y="72"/>
    </contour>
    <contour>
      <point x="-68" y="0" type="curve"/>
      <point x="448" y="0" type="line"/>
      <point x="458" y="114"/>
      <point x="468" y="214"/>
      <point x="482" y="332" type="curve"/>
      <point x="538" y="604" type="line"/>
      <point x="578" y="746"/>
      <point x="616" y="878"/>
      <point x="656" y="1016" type="curve"/>
      <point x="138" y="1004" type="line"/>
      <point x="122" y="866"/>
      <point x="106" y="746"/>
      <point x="82" y="546" type="curve"/>
      <point x="58" y="426" type="line"/>
      <point x="8" y="258"/>
      <point x="-26" y="138"/>
    </contour>
  </outline>
</glyph>
<glyph name="Lslash" format="2">
  <advance width="1218"/>
  <unicode hex="0141"/>
  <outline>
    <contour>
      <point x="18" y="0" type="curve"/>
      <point x="586" y="0" type="line"/>
      <point x="604" y="80" type="line"/>
      <point x="608" y="228"/>
      <point x="624" y="356"/>
      <point x="662" y="538" type="curve"/>
      <point x="748" y="948" type="line"/>
      <point x="804" y="1144"/>
      <point x="842" y="1272"/>
      <point x="886" y="1426" type="curve"/>
      <point x="318" y="1426" type="line"/>
      <point x="298" y="1272"/>
      <point x="282" y="1146"/>
      <point x="256" y="948" type="curve"/>
      <point x="152" y="458" type="line"/>
      <point x="98" y="274"/>
      <point x="62" y="148"/>
    </contour>
    <contour>
      <point x="48" y="430" type="line"/>
      <point x="202" y="478"/>
      <point x="350" y="524"/>
      <point x="478" y="564" type="curve"/>
      <point x="592" y="594" type="line"/>
      <point x="716" y="624"/>
      <point x="876" y="662"/>
      <point x="1026" y="698" type="curve"/>
      <point x="996" y="1058" type="line"/>
      <point x="844" y="1010"/>
      <point x="694" y="962"/>
      <point x="568" y="922" type="curve"/>
      <point x="450" y="890" type="line"/>
      <point x="322" y="860"/>
      <point x="172" y="824"/>
      <point x="18" y="788" type="curve"/>
    </contour>
    <contour>
      <point x="484" y="0" type="line"/>
      <point x="1064" y="0" type="line"/>
      <point x="1164" y="474" type="line"/>
      <point x="1034" y="458"/>
      <point x="926" y="446"/>
      <point x="742" y="424" type="curve"/>
      <point x="574" y="424" type="line"/>
    </contour>
  </outline>
</glyph>
<glyph name="lslash" format="2">
  <advance width="824"/>
  <unicode hex="0142"/>
  <outline>
    <contour>
      <point x="44" y="440" type="line"/>
      <point x="178" y="484"/>
      <point x="300" y="526"/>
      <point x="416" y="564" type="curve"/>
      <point x="518" y="592" type="line"/>
      <point x="642" y="620"/>
      <point x="766" y="648"/>
      <point x="900" y="678" type="curve"/>
      <point x="872" y="1004" type="line"/>
      <point x="732" y="958"/>
      <point x="610" y="916"/>
      <point x="494" y="878" type="curve"/>
      <point x="392" y="850" type="line"/>
      <point x="270" y="822"/>
      <point x="150" y="796"/>
      <point x="16" y="766" type="curve"/>
    </contour>
    <contour>
      <point x="58" y="0" type="curve"/>
      <point x="574" y="0" type="line"/>
      <point x="592" y="138"/>
      <point x="606" y="258"/>
      <point x="628" y="426" type="curve"/>
      <point x="746" y="986" type="line"/>
      <point x="804" y="1178"/>
      <point x="854" y="1350"/>
      <point x="902" y="1504" type="curve"/>
      <point x="332" y="1464" type="line"/>
      <point x="324" y="1298"/>
      <point x="314" y="1144"/>
      <point x="302" y="986" type="curve"/>
      <point x="184" y="426" type="line"/>
      <point x="134" y="258"/>
      <point x="100" y="138"/>
    </contour>
  </outline>
</glyph>
<glyph name="eng" format="2">
  <advance width="1194"/>
  <unicode hex="014B"/>
  <outline>
    <contour>
      <point x="388" y="-396" type="curve"/>
      <point x="802" y="-384" type="line"/>
      <point x="872" y="-300"/>
      <point x="1020" y="-112"/>
      <point x="1052" y="32" type="curve" smooth="yes"/>
      <point x="1086" y="182"/>
      <point x="1108" y="380"/>
      <point x="1140" y="526" type="curve"/>
      <point x="1150" y="570"/>
      <point x="1160" y="620"/>
      <point x="1168" y="652" type="curve" smooth="yes"/>
      <point x="1216" y="880"/>
      <point x="1122" y="1036"/>
      <point x="912" y="1036" type="curve" smooth="yes"/>
      <point x="840" y="1036"/>
      <point x="706" y="968"/>
      <point x="590" y="882" type="curve"/>
      <point x="556" y="882" type="line"/>
      <point x="562" y="1024" type="line"/>
      <point x="136" y="1004" type="line"/>
      <point x="120" y="838"/>
      <point x="108" y="684"/>
      <point x="94" y="526" type="curve"/>
      <point x="72" y="426" type="line"/>
      <point x="22" y="258"/>
      <point x="-12" y="138"/>
      <point x="-54" y="0" type="curve"/>
      <point x="462" y="0" type="line"/>
      <point x="480" y="138"/>
      <point x="494" y="258"/>
      <point x="510" y="400" type="curve"/>
      <point x="548" y="582" type="line"/>
      <point x="572" y="606"/>
      <point x="632" y="636"/>
      <point x="642" y="636" type="curve" smooth="yes"/>
      <point x="690" y="636"/>
      <point x="698" y="578"/>
      <point x="674" y="476" type="curve"/>
      <point x="664" y="426" type="line"/>
      <point x="574" y="38" type="line"/>
      <point x="510" y="-118"/>
      <point x="448" y="-262"/>
    </contour>
  </outline>
</glyph>
<glyph name="jdotless" format="2">
  <advance width="612"/>
  <unicode hex="0237"/>
  <anchor x="138" y="-384" name="bottom"/>
  <anchor x="414" y="1004" name="top"/>
  <outline>
    <contour>
      <point x="-206" y="-396" type="curve"/>
      <point x="208" y="-384" type="line"/>
      <point x="278" y="-300"/>
      <point x="426" y="-112"/>
      <point x="458" y="32" type="curve" smooth="yes"/>
      <point x="492" y="182"/>
      <point x="504" y="380"/>
      <point x="536" y="526" type="curve"/>
      <point x="600" y="746"/>
      <point x="636" y="866"/>
      <point x="676" y="1004" type="curve"/>
      <point x="152" y="1004" type="line"/>
      <point x="134" y="866"/>
      <point x="120" y="746"/>
      <point x="92" y="526" type="curve"/>
      <point x="70" y="426" type="line"/>
      <point x="-20" y="38" type="line"/>
      <point x="-84" y="-118"/>
      <point x="-146" y="-262"/>
    </contour>
  </outline>
</glyph>
<glyph name="verticallinemod" format="2">
  <advance width="460"/>
  <unicode hex="02C8"/>
  <outline>
    <contour>
      <point x="506" y="1004" type="curve"/>
      <point x="168" y="1004" type="line"/>
      <point x="196" y="1184"/>
      <point x="224" y="1368"/>
      <point x="254" y="1558" type="curve"/>
      <point x="654" y="1558" type="line"/>
      <point x="604" y="1368"/>
      <point x="554" y="1182"/>
    </contour>
  </outline>
</glyph>
<glyph name="gravecomb" format="2">
  <unicode hex="0300"/>
  <anchor x="706" y="1004" name="_top"/>
  <anchor x="814" y="1518" name="top"/>
  <outline>
    <contour>
      <point x="670" y="1106" type="curve"/>
      <point x="960" y="1110" type="line"/>
      <point x="928" y="1258"/>
      <point x="896" y="1404"/>
      <point x="864" y="1552" type="curve"/>
      <point x="394" y="1542" type="line"/>
      <point x="438" y="1432"/>
      <point x="570" y="1244"/>
    </contour>
  </outline>
</glyph>
<glyph name="acutecomb" format="2">
  <unicode hex="0301"/>
  <anchor x="706" y="1004" name="_top"/>
  <anchor x="814" y="1518" name="top"/>
  <outline>
    <contour>
      <point x="494" y="1106" type="curve"/>
      <point x="794" y="1110" type="line"/>
      <point x="950" y="1250"/>
      <point x="1158" y="1440"/>
      <point x="1244" y="1552" type="curve"/>
      <point x="740" y="1542" type="line"/>
      <point x="658" y="1398"/>
      <point x="578" y="1254"/>
    </contour>
  </outline>
</glyph>
<glyph name="circumflexcomb" format="2">
  <unicode hex="0302"/>
  <anchor x="706" y="1004" name="_top"/>
  <anchor x="812" y="1510" name="top"/>
  <outline>
    <contour>
      <point x="892" y="1106" type="curve"/>
      <point x="1160" y="1110" type="line"/>
      <point x="1126" y="1256"/>
      <point x="1090" y="1402"/>
      <point x="1056" y="1548" type="curve"/>
      <point x="614" y="1548" type="line"/>
      <point x="658" y="1436"/>
      <point x="792" y="1246"/>
    </contour>
    <contour>
      <point x="294" y="1108" type="curve"/>
      <point x="586" y="1108" type="line"/>
      <point x="728" y="1246"/>
      <point x="920" y="1438"/>
      <point x="998" y="1548" type="curve"/>
      <point x="560" y="1548" type="line"/>
      <point x="472" y="1402"/>
      <point x="384" y="1258"/>
    </contour>
  </outline>
</glyph>
<glyph name="dblgravecomb" format="2">
  <unicode hex="030F"/>
  <anchor x="706" y="1004" name="_top"/>
  <anchor x="816" y="1534" name="top"/>
  <outline>
    <contour>
      <point x="396" y="1106" type="curve"/>
      <point x="658" y="1110" type="line"/>
      <point x="642" y="1258"/>
      <point x="626" y="1404"/>
      <point x="610" y="1552" type="curve"/>
      <point x="174" y="1542" type="line"/>
      <point x="204" y="1432"/>
      <point x="312" y="1244"/>
    </contour>
    <contour>
      <point x="860" y="1106" type="curve"/>
      <point x="1114" y="1110" type="line"/>
      <point x="1114" y="1258"/>
      <point x="1114" y="1404"/>
      <point x="1114" y="1552" type="curve"/>
      <point x="690" y="1542" type="line"/>
      <point x="708" y="1432"/>
      <point x="792" y="1244"/>
    </contour>
  </outline>
</glyph>
<glyph name="dotbelowcomb" format="2">
  <unicode hex="0323"/>
  <anchor x="494" y="0" name="_bottom"/>
  <anchor x="494" y="0" name="bottom"/>
  <outline>
    <contour>
      <point x="394" y="-502" type="curve" smooth="yes"/>
      <point x="566" y="-502"/>
      <point x="646" y="-464"/>
      <point x="682" y="-310" type="curve" smooth="yes"/>
      <point x="714" y="-174"/>
      <point x="652" y="-72"/>
      <point x="482" y="-72" type="curve" smooth="yes"/>
      <point x="310" y="-72"/>
      <point x="224" y="-120"/>
      <point x="194" y="-248" type="curve" smooth="yes"/>
      <point x="154" y="-422"/>
      <point x="222" y="-502"/>
    </contour>
  </outline>
</glyph>
<glyph name="commaaccentcomb" format="2">
  <unicode hex="0326"/>
  <anchor x="494" y="0" name="_bottom"/>
  <anchor x="372" y="-586" name="bottom"/>
  <outline>
    <contour>
      <point x="148" y="-586" type="curve"/>
      <point x="344" y="-582" type="line"/>
      <point x="484" y="-488"/>
      <point x="650" y="-350"/>
      <point x="666" y="-266" type="curve" smooth="yes"/>
      <point x="686" y="-164"/>
      <point x="628" y="-80"/>
      <point x="492" y="-72" type="curve"/>
      <point x="264" y="-90" type="line"/>
      <point x="260" y="-164"/>
      <point x="254" y="-242"/>
      <point x="250" y="-312" type="curve"/>
      <point x="218" y="-400"/>
      <point x="186" y="-486"/>
    </contour>
  </outline>
</glyph>
<glyph name="macronbelowcomb" format="2">
  <unicode hex="0331"/>
  <anchor x="494" y="0" name="_bottom"/>
  <anchor x="494" y="0" name="bottom"/>
  <outline>
    <contour>
      <point x="30" y="-438" type="line"/>
      <point x="144" y="-434"/>
      <point x="276" y="-428"/>
      <point x="406" y="-422" type="curve"/>
      <point x="534" y="-428"/>
      <point x="664" y="-434"/>
      <point x="774" y="-438" type="curve"/>
      <point x="848" y="-86" type="line"/>
      <point x="738" y="-90"/>
      <point x="604" y="-96"/>
      <point x="474" y="-102" type="curve"/>
      <point x="346" y="-96"/>
      <point x="214" y="-90"/>
      <point x="104" y="-86" type="curve"/>
    </contour>
  </outline>
</glyph>
<glyph name="slashlongcomb" format="2">
  <unicode hex="0338"/>
  <anchor x="614" y="714" name="_center"/>
  <outline>
    <contour>
      <point x="44" y="-192" type="line"/>
      <point x="188" y="-16"/>
      <point x="320" y="146"/>
      <point x="480" y="342" type="curve"/>
      <point x="934" y="864" type="line"/>
      <point x="1104" y="1046"/>
      <point x="1244" y="1196"/>
      <point x="1408" y="1372" type="curve"/>
      <point x="1154" y="1572" type="line"/>
      <point x="1004" y="1388"/>
      <point x="876" y="1230"/>
      <point x="716" y="1032" type="curve"/>
      <point x="272" y="522" type="line"/>
      <point x="100" y="338"/>
      <point x="-32" y="196"/>
      <point x="-196" y="20" type="curve"/>
    </contour>
  </outline>
</glyph>
<glyph name="pi" format="2">
  <advance width="1296"/>
  <unicode hex="03C0"/>
  <outline>
    <contour>
      <point x="654" y="0" type="curve"/>
      <point x="1148" y="0" type="line"/>
      <point x="1138" y="130"/>
      <point x="1128" y="262"/>
      <point x="1120" y="374" type="curve"/>
      <point x="1252" y="1004" type="line"/>
      <point x="840" y="1004" type="line"/>
      <point x="762" y="708"/>
      <point x="714" y="524"/>
      <point x="664" y="336" type="curve"/>
      <point x="658" y="310"/>
      <point x="656" y="130"/>
    </contour>
    <contour>
      <point x="10" y="0" type="curve"/>
      <point x="476" y="0" type="line"/>
      <point x="504" y="132"/>
      <point x="530" y="256"/>
      <point x="560" y="398" type="curve"/>
      <point x="588" y="530" type="line"/>
      <point x="628" y="688"/>
      <point x="668" y="846"/>
      <point x="708" y="1004" type="curve"/>
      <point x="282" y="1004" type="line"/>
      <point x="244" y="860"/>
      <point x="212" y="736"/>
      <point x="156" y="522" type="curve"/>
      <point x="136" y="426" type="line"/>
      <point x="86" y="256"/>
      <point x="50" y="136"/>
    </contour>
    <contour>
      <point x="54" y="642" type="line"/>
      <point x="330" y="686" type="line"/>
      <point x="956" y="686" type="line"/>
      <point x="1058" y="674"/>
      <point x="1176" y="658"/>
      <point x="1286" y="642" type="curve"/>
      <point x="1362" y="1004" type="line"/>
      <point x="130" y="1004" type="line"/>
    </contour>
  </outline>
</glyph>
<glyph name="emdash" format="2">
  <advance width="1620"/>
  <unicode hex="2014"/>
  <outline>
    <contour>
      <point x="58" y="402" type="line"/>
      <point x="256" y="408"/>
      <point x="456" y="414"/>
      <point x="604" y="418" type="curve"/>
      <point x="980" y="418" type="line"/>
      <point x="1128" y="414"/>
      <point x="1324" y="408"/>
      <point x="1518" y="402" type="curve"/>
      <point x="1606" y="814" type="line"/>
      <point x="1408" y="808"/>
      <point x="1210" y="802"/>
      <point x="1060" y="798" type="curve"/>
      <point x="684" y="798" type="line"/>
      <point x="538" y="802"/>
      <point x="340" y="808"/>
      <point x="146" y="814" type="curve"/>
    </contour>
  </outline>
</glyph>
<glyph name="dagger" format="2">
  <advance width="1220"/>
  <unicode hex="2020"/>
  <outline>
    <contour>
      <point x="258" y="0" type="curve"/>
      <point x="750" y="0" type="line"/>
      <point x="784" y="218"/>
      <point x="814" y="408"/>
      <point x="854" y="666" type="curve"/>
      <point x="904" y="898" type="line"/>
      <point x="950" y="1058"/>
      <point x="996" y="1218"/>
      <point x="1042" y="1380" type="curve"/>
      <point x="550" y="1380" type="line"/>
      <point x="528" y="1218"/>
      <point x="506" y="1056"/>
      <point x="484" y="898" type="curve"/>
      <point x="434" y="666" type="line"/>
      <point x="366" y="408"/>
      <point x="316" y="220"/>
    </contour>
    <contour>
      <point x="108" y="632" type="line"/>
      <point x="258" y="638"/>
      <point x="412" y="644"/>
      <point x="528" y="648" type="curve"/>
      <point x="756" y="648" type="line"/>
      <point x="868" y="644"/>
      <point x="1018" y="638"/>
      <point x="1168" y="632" type="curve"/>
      <point x="1250" y="1024" type="line"/>
      <point x="1100" y="1018"/>
      <point x="946" y="1012"/>
      <point x="832" y="1008" type="curve"/>
      <point x="604" y="1008" type="line"/>
      <point x="490" y="1012"/>
      <point x="340" y="1018"/>
      <point x="190" y="1024" type="curve"/>
    </contour>
  </outline>
</glyph>
<glyph name="fraction" format="2">
  <advance width="664"/>
  <unicode hex="2044"/>
  <outline>
    <contour>
      <point x="-382" y="0" type="curve"/>
      <point x="130" y="0" type="line"/>
      <point x="224" y="148"/>
      <point x="304" y="274"/>
      <point x="422" y="460" type="curve"/>
      <point x="768" y="954" type="line"/>
      <point x="914" y="1140"/>
      <point x="1018" y="1276"/>
      <point x="1136" y="1426" type="curve"/>
      <point x="628" y="1426" type="line"/>
      <point x="530" y="1276"/>
      <point x="444" y="1140"/>
      <point x="324" y="954" type="curve"/>
      <point x="-22" y="460" type="line"/>
      <point x="-158" y="286"/>
      <point x="-266" y="148"/>
    </contour>
  </outline>
</glyph>
<glyph name="peseta" format="2">
  <advance width="1620"/>
  <unicode hex="20A7"/>
  <outline>
    <contour>
      <point x="616" y="410" type="line"/>
      <point x="690" y="408"/>
      <point x="814" y="404"/>
      <point x="908" y="402" type="curve"/>
      <point x="1234" y="402"/>
      <point x="1398" y="556"/>
      <point x="1462" y="852" type="curve" smooth="yes"/>
      <point x="1544" y="1232"/>
      <point x="1372" y="1392"/>
      <point x="1022" y="1392" type="curve"/>
      <point x="752" y="1386"/>
      <point x="530" y="1382"/>
      <point x="384" y="1380" type="curve"/>
      <point x="774" y="1028" type="line"/>
      <point x="918" y="1028" type="line" smooth="yes"/>
      <point x="980" y="1028"/>
      <point x="1010" y="970"/>
      <point x="988" y="868" type="curve" smooth="yes"/>
      <point x="966" y="764"/>
      <point x="930" y="738"/>
      <point x="860" y="738" type="curve" smooth="yes"/>
      <point x="686" y="738" type="line"/>
    </contour>
    <contour>
      <point x="90" y="0" type="curve"/>
      <point x="620" y="0" type="line"/>
      <point x="638" y="138"/>
      <point x="656" y="274"/>
      <point x="678" y="444" type="curve"/>
      <point x="764" y="850" type="line"/>
      <point x="814" y="1032"/>
      <point x="850" y="1164"/>
      <point x="888" y="1304" type="curve"/>
      <point x="382" y="1380" type="line"/>
      <point x="364" y="1244"/>
      <point x="346" y="1106"/>
      <point x="322" y="924" type="curve"/>
      <point x="220" y="444" type="line"/>
      <point x="170" y="272"/>
      <point x="132" y="144"/>
    </contour>
    <contour>
      <point x="96" y="716" type="line"/>
      <point x="246" y="722"/>
      <point x="398" y="728"/>
      <point x="512" y="732" type="curve"/>
      <point x="576" y="1032" type="line"/>
      <point x="464" y="1036"/>
      <point x="314" y="1042"/>
      <point x="166" y="1048" type="curve"/>
    </contour>
    <contour>
      <point x="1206" y="732" type="line"/>
      <point x="1320" y="728"/>
      <point x="1468" y="722"/>
      <point x="1616" y="716" type="curve"/>
      <point x="1686" y="1048" type="line"/>
      <point x="1536" y="1042"/>
      <point x="1386" y="1036"/>
      <point x="1270" y="1032" type="curve"/>
    </contour>
  </outline>
</glyph>
<glyph name="won" format="2">
  <advance width="2224"/>
  <unicode hex="20A9"/>
  <outline>
    <contour>
      <point x="308" y="0" type="curve"/>
      <point x="892" y="0" type="line"/>
      <point x="924" y="112"/>
      <point x="962" y="248"/>
      <point x="994" y="360" type="curve"/>
      <point x="1114" y="698" type="line"/>
      <point x="1144" y="698" type="line"/>
      <point x="1126" y="354" type="line"/>
      <point x="1112" y="240"/>
      <point x="1096" y="114"/>
      <point x="1082" y="0" type="curve"/>
      <point x="1702" y="0" type="line"/>
      <point x="1752" y="128"/>
      <point x="1816" y="292"/>
      <point x="1872" y="436" type="curve"/>
      <point x="2066" y="872" type="line"/>
      <point x="2136" y="1004"/>
      <point x="2246" y="1210"/>
      <point x="2336" y="1380" type="curve"/>
      <point x="1734" y="1380" type="line"/>
      <point x="1696" y="1238"/>
      <point x="1654" y="1078"/>
      <point x="1622" y="958" type="curve"/>
      <point x="1500" y="564" type="line"/>
      <point x="1470" y="564" type="line"/>
      <point x="1498" y="944" type="line"/>
      <point x="1516" y="1076"/>
      <point x="1538" y="1250"/>
      <point x="1556" y="1380" type="curve"/>
      <point x="1022" y="1380" type="line"/>
      <point x="984" y="1242"/>
      <point x="942" y="1092"/>
      <point x="904" y="954" type="curve"/>
      <point x="774" y="564" type="line"/>
      <point x="742" y="564" type="line"/>
      <point x="782" y="944" type="line"/>
      <point x="802" y="1078"/>
      <point x="828" y="1246"/>
      <point x="848" y="1380" type="curve"/>
      <point x="260" y="1380" type="line"/>
      <point x="278" y="1210"/>
      <point x="300" y="1006"/>
      <point x="316" y="856" type="curve"/>
      <point x="326" y="434" type="line"/>
      <point x="320" y="298"/>
      <point x="314" y="150"/>
    </contour>
    <contour>
      <point x="50" y="550" type="line"/>
      <point x="202" y="556"/>
      <point x="354" y="562"/>
      <point x="470" y="566" type="curve"/>
      <point x="534" y="866" type="line"/>
      <point x="420" y="870"/>
      <point x="270" y="876"/>
      <point x="120" y="882" type="curve"/>
    </contour>
    <contour>
      <point x="1782" y="566" type="line"/>
      <point x="1894" y="562"/>
      <point x="2046" y="556"/>
      <point x="2194" y="550" type="curve"/>
      <point x="2264" y="882" type="line"/>
      <point x="2114" y="876"/>
      <point x="1960" y="870"/>
      <point x="1846" y="866" type="curve"/>
    </contour>
  </outline>
</glyph>
<glyph name="dong" format="2">
  <advance width="1156"/>
  <unicode hex="20AB"/>
  <outline>
    <contour>
      <point x="360" y="266" type="curve" smooth="yes"/>
      <point x="418" y="266"/>
      <point x="508" y="316"/>
      <point x="600" y="388" type="curve"/>
      <point x="622" y="388" type="line"/>
      <point x="620" y="292" type="line"/>
      <point x="958" y="292" type="line"/>
      <point x="970" y="398"/>
      <point x="982" y="506"/>
      <point x="996" y="634" type="curve"/>
      <point x="1090" y="1078" type="line"/>
      <point x="1124" y="1238"/>
      <point x="1152" y="1368"/>
      <point x="1178" y="1492" type="curve"/>
      <point x="772" y="1466" type="line"/>
      <point x="756" y="1332"/>
      <point x="742" y="1210"/>
      <point x="726" y="1080" type="curve"/>
      <point x="716" y="1024" type="line"/>
      <point x="690" y="1024" type="line"/>
      <point x="618" y="1084"/>
      <point x="542" y="1122"/>
      <point x="488" y="1122" type="curve" smooth="yes"/>
      <point x="294" y="1122"/>
      <point x="166" y="950"/>
      <point x="118" y="724" type="curve" smooth="yes"/>
      <point x="66" y="476"/>
      <point x="144" y="266"/>
    </contour>
    <contour>
      <point x="-38" y="-16" type="line"/>
      <point x="114" y="-10"/>
      <point x="268" y="-4"/>
      <point x="382" y="0" type="curve"/>
      <point x="470" y="0" type="line"/>
      <point x="584" y="-4"/>
      <point x="734" y="-10"/>
      <point x="882" y="-16" type="curve"/>
      <point x="936" y="216" type="line"/>
      <point x="784" y="210"/>
      <point x="632" y="204"/>
      <point x="516" y="200" type="curve"/>
      <point x="428" y="200" type="line"/>
      <point x="316" y="204"/>
      <point x="164" y="210"/>
      <point x="16" y="216" type="curve"/>
    </contour>
    <contour>
      <point x="552" y="568" type="curve"/>
      <point x="488" y="574"/>
      <point x="472" y="646"/>
      <point x="484" y="694" type="curve" smooth="yes"/>
      <point x="502" y="764"/>
      <point x="542" y="808"/>
      <point x="604" y="814" type="curve"/>
      <point x="632" y="810"/>
      <point x="654" y="800"/>
      <point x="666" y="788" type="curve"/>
      <point x="628" y="610" type="line"/>
      <point x="608" y="588"/>
      <point x="580" y="574"/>
    </contour>
    <contour>
      <point x="484" y="1176" type="line"/>
      <point x="620" y="1182"/>
      <point x="760" y="1188"/>
      <point x="864" y="1192" type="curve"/>
      <point x="894" y="1192" type="line"/>
      <point x="998" y="1188"/>
      <point x="1134" y="1182"/>
      <point x="1270" y="1176" type="curve"/>
      <point x="1314" y="1388" type="line"/>
      <point x="1178" y="1382"/>
      <point x="1038" y="1376"/>
      <point x="932" y="1372" type="curve"/>
      <point x="902" y="1372" type="line"/>
      <point x="800" y="1376"/>
      <point x="664" y="1382"/>
      <point x="528" y="1388" type="curve"/>
    </contour>
  </outline>
</glyph>
<glyph name="kip" format="2">
  <advance width="1566"/>
  <unicode hex="20AD"/>
  <outline>
    <contour>
      <point x="838" y="0" type="curve"/>
      <point x="1446" y="0" type="line"/>
      <point x="1384" y="140"/>
      <point x="1282" y="370"/>
      <point x="1214" y="522" type="curve"/>
      <point x="1082" y="874" type="line"/>
      <point x="1118" y="668" type="line"/>
      <point x="1340" y="944" type="line"/>
      <point x="1462" y="1082"/>
      <point x="1592" y="1228"/>
      <point x="1726" y="1380" type="curve"/>
      <point x="1106" y="1380" type="line"/>
      <point x="1042" y="1260"/>
      <point x="992" y="1166"/>
      <point x="940" y="1068" type="curve"/>
      <point x="804" y="856" type="line"/>
      <point x="712" y="856" type="line"/>
      <point x="652" y="576" type="line"/>
      <point x="750" y="576" type="line"/>
      <point x="808" y="320" type="line"/>
      <point x="818" y="222"/>
      <point x="826" y="126"/>
    </contour>
    <contour>
      <point x="90" y="0" type="curve"/>
      <point x="630" y="0" type="line"/>
      <point x="648" y="142"/>
      <point x="664" y="266"/>
      <point x="686" y="436" type="curve"/>
      <point x="790" y="926" type="line"/>
      <point x="842" y="1104"/>
      <point x="880" y="1236"/>
      <point x="922" y="1380" type="curve"/>
      <point x="382" y="1380" type="line"/>
      <point x="364" y="1242"/>
      <point x="346" y="1106"/>
      <point x="322" y="926" type="curve"/>
      <point x="218" y="436" type="line"/>
      <point x="168" y="266"/>
      <point x="132" y="142"/>
    </contour>
    <contour>
      <point x="60" y="550" type="line"/>
      <point x="212" y="556"/>
      <point x="364" y="562"/>
      <point x="480" y="566" type="curve"/>
      <point x="1108" y="566" type="line"/>
      <point x="1220" y="562"/>
      <point x="1372" y="556"/>
      <point x="1520" y="550" type="curve"/>
      <point x="1590" y="882" type="line"/>
      <point x="1440" y="876"/>
      <point x="1286" y="870"/>
      <point x="1172" y="866" type="curve"/>
      <point x="544" y="866" type="line"/>
      <point x="430" y="870"/>
      <point x="280" y="876"/>
      <point x="130" y="882" type="curve"/>
    </contour>
  </outline>
</glyph>
<glyph name="peso" format="2">
  <advance width="1620"/>
  <unicode hex="20B1"/>
  <outline>
    <contour>
      <point x="616" y="410" type="line"/>
      <point x="690" y="408"/>
      <point x="814" y="404"/>
      <point x="908" y="402" type="curve"/>
      <point x="1234" y="402"/>
      <point x="1398" y="556"/>
      <point x="1462" y="852" type="curve" smooth="yes"/>
      <point x="1544" y="1232"/>
      <point x="1372" y="1392"/>
      <point x="1022" y="1392" type="curve"/>
      <point x="752" y="1386"/>
      <point x="530" y="1382"/>
      <point x="384" y="1380" type="curve"/>
      <point x="774" y="1028" type="line"/>
      <point x="918" y="1028" type="line" smooth="yes"/>
      <point x="980" y="1028"/>
      <point x="1010" y="970"/>
      <point x="988" y="868" type="curve" smooth="yes"/>
      <point x="966" y="764"/>
      <point x="930" y="738"/>
      <point x="860" y="738" type="curve" smooth="yes"/>
      <point x="686" y="738" type="line"/>
    </contour>
    <contour>
      <point x="90" y="0" type="curve"/>
      <point x="620" y="0" type="line"/>
      <point x="638" y="138"/>
      <point x="656" y="274"/>
      <point x="678" y="444" type="curve"/>
      <point x="764" y="850" type="line"/>
      <point x="814" y="1032"/>
      <point x="850" y="1164"/>
      <point x="888" y="1304" type="curve"/>
      <point x="382" y="1380" type="line"/>
      <point x="364" y="1244"/>
      <point x="346" y="1106"/>
      <point x="322" y="924" type="curve"/>
      <point x="220" y="444" type="line"/>
      <point x="170" y="272"/>
      <point x="132" y="144"/>
    </contour>
    <contour>
      <point x="72" y="608" type="line"/>
      <point x="222" y="614"/>
      <point x="374" y="620"/>
      <point x="486" y="624" type="curve"/>
      <point x="532" y="844" type="line"/>
      <point x="410" y="844"/>
      <point x="270" y="844"/>
      <point x="122" y="844" type="curve"/>
    </contour>
    <contour>
      <point x="140" y="922" type="line"/>
      <point x="288" y="922"/>
      <point x="428" y="922"/>
      <point x="550" y="922" type="curve"/>
      <point x="596" y="1142" type="line"/>
      <point x="484" y="1146"/>
      <point x="336" y="1152"/>
      <point x="190" y="1158" type="curve"/>
    </contour>
    <contour>
      <point x="1180" y="624" type="line"/>
      <point x="1294" y="620"/>
      <point x="1444" y="614"/>
      <point x="1592" y="608" type="curve"/>
      <point x="1642" y="844" type="line"/>
      <point x="1492" y="844"/>
      <point x="1350" y="844"/>
      <point x="1226" y="844" type="curve"/>
    </contour>
    <contour>
      <point x="1244" y="922" type="line"/>
      <point x="1368" y="922"/>
      <point x="1510" y="922"/>
      <point x="1660" y="922" type="curve"/>
      <point x="1710" y="1158" type="line"/>
      <point x="1558" y="1152"/>
      <point x="1404" y="1146"/>
      <point x="1290" y="1142" type="curve"/>
    </contour>
  </outline>
</glyph>
<glyph name="guarani" format="2">
  <advance width="1386"/>
  <unicode hex="20B2"/>
  <outline>
    <contour>
      <point x="762" y="-28" type="curve" smooth="yes"/>
      <point x="870" y="-28"/>
      <point x="1074" y="6"/>
      <point x="1208" y="24" type="curve"/>
      <point x="1218" y="444" type="line"/>
      <point x="1074" y="400"/>
      <point x="856" y="338"/>
      <point x="800" y="338" type="curve"/>
      <point x="604" y="344"/>
      <point x="538" y="532"/>
      <point x="578" y="724" type="curve" smooth="yes"/>
      <point x="628" y="958"/>
      <point x="778" y="1014"/>
      <point x="904" y="1020" type="curve"/>
      <point x="938" y="1020"/>
      <point x="1140" y="954"/>
      <point x="1316" y="882" type="curve"/>
      <point x="1444" y="1310" type="line"/>
      <point x="1250" y="1364"/>
      <point x="980" y="1412"/>
      <point x="894" y="1412" type="curve" smooth="yes"/>
      <point x="464" y="1412"/>
      <point x="198" y="1210"/>
      <point x="106" y="780" type="curve" smooth="yes"/>
      <point x="14" y="352"/>
      <point x="214" y="-28"/>
    </contour>
    <contour>
      <point x="734" y="24" type="curve"/>
      <point x="1208" y="24" type="line"/>
      <point x="1232" y="174"/>
      <point x="1250" y="284"/>
      <point x="1268" y="398" type="curve"/>
      <point x="1310" y="530"/>
      <point x="1338" y="620"/>
      <point x="1374" y="732" type="curve"/>
      <point x="864" y="732" type="line"/>
      <point x="852" y="612"/>
      <point x="844" y="534"/>
      <point x="830" y="398" type="curve"/>
      <point x="802" y="288"/>
      <point x="770" y="166"/>
    </contour>
    <contour>
      <point x="426" y="-274" type="curve"/>
      <point x="792" y="-274" type="line"/>
      <point x="820" y="-116"/>
      <point x="850" y="54"/>
      <point x="872" y="186" type="curve"/>
      <point x="540" y="186" type="line"/>
      <point x="508" y="56"/>
      <point x="466" y="-114"/>
    </contour>
    <contour>
      <point x="756" y="1208" type="curve"/>
      <point x="1092" y="1208" type="line"/>
      <point x="1120" y="1324"/>
      <point x="1156" y="1470"/>
      <point x="1190" y="1606" type="curve"/>
      <point x="826" y="1606" type="line"/>
      <point x="802" y="1470"/>
      <point x="778" y="1328"/>
    </contour>
  </outline>
</glyph>
<glyph name="ruble" format="2">
  <advance width="1386"/>
  <unicode hex="20BD"/>
  <outline>
    <contour>
      <point x="604" y="544" type="line"/>
      <point x="678" y="542"/>
      <point x="802" y="538"/>
      <point x="896" y="536" type="curve"/>
      <point x="1222" y="536"/>
      <point x="1380" y="658"/>
      <point x="1438" y="928" type="curve" smooth="yes"/>
      <point x="1506" y="1242"/>
      <point x="1332" y="1392"/>
      <point x="982" y="1392" type="curve"/>
      <point x="696" y="1386"/>
      <point x="460" y="1382"/>
      <point x="344" y="1380" type="curve"/>
      <point x="742" y="1062" type="line"/>
      <point x="886" y="1062" type="line" smooth="yes"/>
      <point x="948" y="1062"/>
      <point x="974" y="1012"/>
      <point x="960" y="944" type="curve" smooth="yes"/>
      <point x="948" y="888"/>
      <point x="910" y="840"/>
      <point x="840" y="840" type="curve" smooth="yes"/>
      <point x="666" y="840" type="line"/>
    </contour>
    <contour>
      <point x="50" y="0" type="curve"/>
      <point x="580" y="0" type="line"/>
      <point x="598" y="138"/>
      <point x="616" y="274"/>
      <point x="638" y="444" type="curve"/>
      <point x="724" y="850" type="line"/>
      <point x="774" y="1032"/>
      <point x="810" y="1164"/>
      <point x="848" y="1304" type="curve"/>
      <point x="342" y="1380" type="line"/>
      <point x="324" y="1244"/>
      <point x="306" y="1106"/>
      <point x="282" y="924" type="curve"/>
      <point x="180" y="444" type="line"/>
      <point x="130" y="272"/>
      <point x="92" y="144"/>
    </contour>
    <contour>
      <point x="-24" y="154" type="line"/>
      <point x="128" y="160"/>
      <point x="280" y="166"/>
      <point x="396" y="170" type="curve"/>
      <point x="524" y="170" type="line"/>
      <point x="636" y="166"/>
      <point x="788" y="160"/>
      <point x="936" y="154" type="curve"/>
      <point x="996" y="436" type="line"/>
      <point x="846" y="434"/>
      <point x="696" y="432"/>
      <point x="578" y="430" type="curve"/>
      <point x="450" y="430" type="line"/>
      <point x="338" y="434"/>
      <point x="186" y="440"/>
      <point x="38" y="446" type="curve"/>
    </contour>
  </outline>
</glyph>
<glyph name="literSign" format="2">
  <advance width="1166"/>
  <unicode hex="2113"/>
  <outline>
    <contour>
      <point x="746" y="-32" type="curve" smooth="yes"/>
      <point x="784" y="-32"/>
      <point x="918" y="-8"/>
      <point x="982" y="14" type="curve"/>
      <point x="1042" y="380" type="line"/>
      <point x="966" y="356"/>
      <point x="840" y="324"/>
      <point x="814" y="324" type="curve" smooth="yes"/>
      <point x="666" y="328"/>
      <point x="588" y="388"/>
      <point x="634" y="610" type="curve" smooth="yes"/>
      <point x="696" y="910" type="line" smooth="yes"/>
      <point x="734" y="1090"/>
      <point x="788" y="1118"/>
      <point x="834" y="1130" type="curve"/>
      <point x="880" y="1118"/>
      <point x="934" y="1080"/>
      <point x="910" y="966" type="curve" smooth="yes"/>
      <point x="878" y="814"/>
      <point x="744" y="644"/>
      <point x="492" y="644" type="curve" smooth="yes"/>
      <point x="454" y="644"/>
      <point x="252" y="680"/>
      <point x="92" y="710" type="curve"/>
      <point x="30" y="488" type="line"/>
      <point x="196" y="458"/>
      <point x="436" y="426"/>
      <point x="486" y="426" type="curve" smooth="yes"/>
      <point x="976" y="426"/>
      <point x="1148" y="680"/>
      <point x="1200" y="928" type="curve" smooth="yes"/>
      <point x="1264" y="1234"/>
      <point x="1072" y="1412"/>
      <point x="822" y="1412" type="curve" smooth="yes"/>
      <point x="482" y="1412"/>
      <point x="346" y="1210"/>
      <point x="278" y="894" type="curve" smooth="yes"/>
      <point x="222" y="634" type="line" smooth="yes"/>
      <point x="128" y="200"/>
      <point x="376" y="-32"/>
    </contour>
  </outline>
</glyph>
<glyph name="Ohm" format="2">
  <advance width="1576"/>
  <unicode hex="2126"/>
  <outline>
    <contour>
      <point x="-46" y="0" type="line"/>
      <point x="646" y="0" type="line"/>
      <point x="676" y="178"/>
      <point x="700" y="322"/>
      <point x="738" y="548" type="curve"/>
      <point x="702" y="598"/>
      <point x="624" y="740"/>
      <point x="644" y="836" type="curve" smooth="yes"/>
      <point x="674" y="982"/>
      <point x="776" y="1044"/>
      <point x="886" y="1056" type="curve"/>
      <point x="1006" y="1040"/>
      <point x="1092" y="942"/>
      <point x="1060" y="796" type="curve" smooth="yes"/>
      <point x="1036" y="692"/>
      <point x="922" y="586"/>
      <point x="858" y="548" type="curve"/>
      <point x="802" y="330"/>
      <point x="764" y="180"/>
      <point x="718" y="0" type="curve"/>
      <point x="1410" y="0" type="line"/>
      <point x="1502" y="434" type="line"/>
      <point x="1408" y="420"/>
      <point x="1314" y="406"/>
      <point x="1168" y="384" type="curve"/>
      <point x="1036" y="384" type="line"/>
      <point x="1226" y="198" type="line"/>
      <point x="1240" y="310"/>
      <point x="1250" y="394"/>
      <point x="1268" y="538" type="curve"/>
      <point x="936" y="334" type="line"/>
      <point x="1308" y="450"/>
      <point x="1530" y="588"/>
      <point x="1580" y="828" type="curve" smooth="yes"/>
      <point x="1644" y="1140"/>
      <point x="1412" y="1450"/>
      <point x="906" y="1450" type="curve" smooth="yes"/>
      <point x="460" y="1450"/>
      <point x="220" y="1254"/>
      <point x="158" y="954" type="curve" smooth="yes"/>
      <point x="120" y="770"/>
      <point x="216" y="488"/>
      <point x="592" y="334" type="curve"/>
      <point x="324" y="538" type="line"/>
      <point x="282" y="398"/>
      <point x="258" y="318"/>
      <point x="222" y="198" type="curve"/>
      <point x="492" y="384" type="line"/>
      <point x="360" y="384" type="line"/>
      <point x="222" y="406"/>
      <point x="132" y="420"/>
      <point x="46" y="434" type="curve"/>
    </contour>
  </outline>
</glyph>
<glyph name="product" format="2">
  <advance width="1682"/>
  <unicode hex="220F"/>
  <outline>
    <contour>
      <point x="740" y="-384" type="curve"/>
      <point x="1306" y="-384" type="line"/>
      <point x="1334" y="-192"/>
      <point x="1360" y="-14"/>
      <point x="1390" y="192" type="curve"/>
      <point x="1508" y="746" type="line"/>
      <point x="1568" y="962"/>
      <point x="1618" y="1140"/>
      <point x="1670" y="1328" type="curve"/>
      <point x="1690" y="1426" type="line"/>
      <point x="1124" y="1426" type="line"/>
      <point x="1104" y="1328" type="line"/>
      <point x="1076" y="1138"/>
      <point x="1050" y="962"/>
      <point x="1018" y="746" type="curve"/>
      <point x="900" y="192" type="line"/>
      <point x="842" y="-18"/>
      <point x="790" y="-204"/>
    </contour>
    <contour>
      <point x="0" y="-384" type="curve"/>
      <point x="566" y="-384" type="line"/>
      <point x="594" y="-192"/>
      <point x="620" y="-14"/>
      <point x="650" y="192" type="curve"/>
      <point x="768" y="746" type="line"/>
      <point x="828" y="962"/>
      <point x="878" y="1140"/>
      <point x="930" y="1328" type="curve"/>
      <point x="950" y="1426" type="line"/>
      <point x="384" y="1426" type="line"/>
      <point x="364" y="1328" type="line"/>
      <point x="336" y="1138"/>
      <point x="310" y="962"/>
      <point x="278" y="746" type="curve"/>
      <point x="160" y="192" type="line"/>
      <point x="102" y="-18"/>
      <point x="50" y="-204"/>
    </contour>
    <contour>
      <point x="160" y="972" type="line"/>
      <point x="258" y="986"/>
      <point x="364" y="1002"/>
      <point x="508" y="1022" type="curve"/>
      <point x="1394" y="1022" type="line"/>
      <point x="1530" y="1002"/>
      <point x="1628" y="986"/>
      <point x="1722" y="972" type="curve"/>
      <point x="1818" y="1426" type="line"/>
      <point x="256" y="1426" type="line"/>
    </contour>
  </outline>
</glyph>
<glyph name="minus" format="2">
  <advance width="1180"/>
  <unicode hex="2212"/>
  <outline>
    <contour>
      <point x="60" y="412" type="line"/>
      <point x="212" y="418"/>
      <point x="366" y="424"/>
      <point x="480" y="428" type="curve"/>
      <point x="668" y="428" type="line"/>
      <point x="782" y="424"/>
      <point x="932" y="418"/>
      <point x="1080" y="412" type="curve"/>
      <point x="1168" y="824" type="line"/>
      <point x="1018" y="818"/>
      <point x="864" y="812"/>
      <point x="750" y="808" type="curve"/>
      <point x="562" y="808" type="line"/>
      <point x="448" y="812"/>
      <point x="298" y="818"/>
      <point x="148" y="824" type="curve"/>
    </contour>
  </outline>
</glyph>
<glyph name="infinity" format="2">
  <advance width="1844"/>
  <unicode hex="221E"/>
  <outline>
    <contour>
      <point x="1280" y="100" type="curve" smooth="yes"/>
      <point x="1586" y="100"/>
      <point x="1752" y="278"/>
      <point x="1814" y="570" type="curve" smooth="yes"/>
      <point x="1872" y="842"/>
      <point x="1748" y="1140"/>
      <point x="1418" y="1140" type="curve" smooth="yes"/>
      <point x="1174" y="1140"/>
      <point x="992" y="928"/>
      <point x="806" y="732" type="curve"/>
      <point x="776" y="548" type="line"/>
      <point x="894" y="354"/>
      <point x="1026" y="100"/>
    </contour>
    <contour>
      <point x="476" y="100" type="curve" smooth="yes"/>
      <point x="720" y="100"/>
      <point x="902" y="312"/>
      <point x="1088" y="508" type="curve"/>
      <point x="1118" y="692" type="line"/>
      <point x="1000" y="886"/>
      <point x="868" y="1140"/>
      <point x="614" y="1140" type="curve" smooth="yes"/>
      <point x="308" y="1140"/>
      <point x="142" y="962"/>
      <point x="80" y="670" type="curve" smooth="yes"/>
      <point x="22" y="398"/>
      <point x="146" y="100"/>
    </contour>
    <contour>
      <point x="558" y="444" type="curve"/>
      <point x="488" y="452"/>
      <point x="452" y="540"/>
      <point x="472" y="634" type="curve" smooth="yes"/>
      <point x="494" y="736"/>
      <point x="538" y="788"/>
      <point x="608" y="796" type="curve"/>
      <point x="644" y="792"/>
      <point x="686" y="738"/>
      <point x="750" y="620" type="curve"/>
      <point x="662" y="506"/>
      <point x="592" y="448"/>
    </contour>
    <contour>
      <point x="1286" y="444" type="curve"/>
      <point x="1250" y="448"/>
      <point x="1208" y="502"/>
      <point x="1144" y="620" type="curve"/>
      <point x="1232" y="734"/>
      <point x="1302" y="792"/>
      <point x="1336" y="796" type="curve"/>
      <point x="1406" y="788"/>
      <point x="1442" y="700"/>
      <point x="1422" y="606" type="curve" smooth="yes"/>
      <point x="1400" y="504"/>
      <point x="1356" y="452"/>
    </contour>
  </outline>
</glyph>
<glyph name="OE.001" format="2">
  <advance width="2170"/>
  <anchor x="979" y="0" name="bottom"/>
  <anchor x="1282" y="1426" name="top"/>
  <outline>
    <contour>
      <point x="746" y="-32" type="curve" smooth="yes"/>
      <point x="1182" y="-32"/>
      <point x="1420" y="238"/>
      <point x="1498" y="630" type="curve"/>
      <point x="1574" y="866" type="line"/>
      <point x="1574" y="1322"/>
      <point x="1352" y="1458"/>
      <point x="938" y="1458" type="curve" smooth="yes"/>
      <point x="444" y="1458"/>
      <point x="188" y="1206"/>
      <point x="110" y="806" type="curve" smooth="yes"/>
      <point x="24" y="370"/>
      <point x="234" y="-32"/>
    </contour>
    <contour>
      <point x="808" y="364" type="curve"/>
      <point x="648" y="388"/>
      <point x="564" y="544"/>
      <point x="608" y="746" type="curve" smooth="yes"/>
      <point x="648" y="932"/>
      <point x="756" y="1042"/>
      <point x="906" y="1062" type="curve"/>
      <point x="1078" y="1038"/>
      <point x="1142" y="874"/>
      <point x="1100" y="680" type="curve" smooth="yes"/>
      <point x="1058" y="482"/>
      <point x="950" y="380"/>
    </contour>
    <contour>
      <point x="922" y="0" type="curve"/>
      <point x="1474" y="0" type="line"/>
      <point x="1492" y="80" type="line"/>
      <point x="1510" y="228"/>
      <point x="1526" y="356"/>
      <point x="1550" y="538" type="curve"/>
      <point x="1618" y="868" type="line"/>
      <point x="1674" y="1058"/>
      <point x="1712" y="1192"/>
      <point x="1758" y="1346" type="curve"/>
      <point x="1774" y="1426" type="line"/>
      <point x="1222" y="1426" type="line"/>
      <point x="1202" y="1272"/>
      <point x="1186" y="1146"/>
      <point x="1160" y="948" type="curve"/>
      <point x="1056" y="458" type="line"/>
      <point x="1002" y="274"/>
      <point x="966" y="148"/>
    </contour>
    <contour>
      <point x="1384" y="0" type="line"/>
      <point x="1984" y="0" type="line"/>
      <point x="2074" y="422" type="line"/>
      <point x="1952" y="410"/>
      <point x="1824" y="398"/>
      <point x="1680" y="386" type="curve"/>
      <point x="1466" y="386" type="line"/>
    </contour>
    <contour>
      <point x="1436" y="542" type="line"/>
      <point x="1680" y="542" type="line"/>
      <point x="1836" y="532"/>
      <point x="1944" y="526"/>
      <point x="2058" y="520" type="curve"/>
      <point x="2140" y="910" type="line"/>
      <point x="2028" y="904"/>
      <point x="1918" y="896"/>
      <point x="1752" y="886" type="curve"/>
      <point x="1508" y="886" type="line"/>
    </contour>
    <contour>
      <point x="1572" y="1040" type="line"/>
      <point x="1786" y="1040" type="line"/>
      <point x="1954" y="1024"/>
      <point x="2068" y="1014"/>
      <point x="2182" y="1004" type="curve"/>
      <point x="2270" y="1426" type="line"/>
      <point x="1652" y="1426" type="line"/>
    </contour>
  </outline>
</glyph>
<glyph name="_Q_tail" format="2">
  <advance width="1566"/>
  <anchor x="678" y="0" name="_bottom"/>
  <outline>
    <contour>
      <point x="908" y="-370" type="curve"/>
      <point x="1440" y="-168" type="line"/>
      <point x="1298" y="-74"/>
      <point x="1214" y="-18"/>
      <point x="1116" y="48" type="curve"/>
      <point x="926" y="236" type="line"/>
      <point x="644" y="-4" type="line"/>
      <point x="756" y="-140" type="line"/>
      <point x="804" y="-212"/>
      <point x="856" y="-290"/>
    </contour>
  </outline>
</glyph>
<glyph name="_notequal" format="2">
  <advance width="1180"/>
  <outline>
    <contour>
      <point x="468" y="-64" type="line"/>
      <point x="532" y="84"/>
      <point x="598" y="238"/>
      <point x="644" y="344" type="curve"/>
      <point x="870" y="816" type="line"/>
      <point x="926" y="926"/>
      <point x="1002" y="1068"/>
      <point x="1076" y="1212" type="curve"/>
      <point x="758" y="1298" type="line"/>
      <point x="694" y="1152"/>
      <point x="632" y="1006"/>
      <point x="582" y="894" type="curve"/>
      <point x="356" y="422" type="line"/>
      <point x="302" y="316"/>
      <point x="224" y="166"/>
      <point x="150" y="22" type="curve"/>
    </contour>
  </outline>
</glyph>
<glyph name="_question" format="2">
  <advance width="930"/>
  <outline>
    <contour>
      <point x="470" y="496" type="curve" smooth="yes"/>
      <point x="504" y="496"/>
      <point x="628" y="516"/>
      <point x="700" y="528" type="curve"/>
      <point x="728" y="716" type="line"/>
      <point x="688" y="702"/>
      <point x="646" y="690"/>
      <point x="638" y="690" type="curve"/>
      <point x="620" y="692"/>
      <point x="598" y="696"/>
      <point x="604" y="720" type="curve"/>
      <point x="610" y="748"/>
      <point x="662" y="778"/>
      <point x="732" y="810" type="curve" smooth="yes"/>
      <point x="848" y="862"/>
      <point x="974" y="926"/>
      <point x="1016" y="1114" type="curve" smooth="yes"/>
      <point x="1070" y="1360"/>
      <point x="900" y="1498"/>
      <point x="616" y="1498" type="curve" smooth="yes"/>
      <point x="552" y="1498"/>
      <point x="358" y="1458"/>
      <point x="236" y="1434" type="curve"/>
      <point x="176" y="1056" type="line"/>
      <point x="306" y="1098"/>
      <point x="442" y="1140"/>
      <point x="486" y="1140" type="curve"/>
      <point x="562" y="1138"/>
      <point x="586" y="1114"/>
      <point x="578" y="1078" type="curve"/>
      <point x="568" y="1036"/>
      <point x="514" y="1004"/>
      <point x="448" y="966" type="curve" smooth="yes"/>
      <point x="338" y="902"/>
      <point x="238" y="840"/>
      <point x="212" y="718" type="curve" smooth="yes"/>
      <point x="188" y="600"/>
      <point x="260" y="496"/>
    </contour>
  </outline>
</glyph>
<glyph name="_slash.Lslash" format="2">
  <advance width="1218"/>
  <anchor x="638" y="714" name="_center"/>
  <outline>
    <contour>
      <point x="48" y="430" type="line"/>
      <point x="202" y="478"/>
      <point x="350" y="524"/>
      <point x="478" y="564" type="curve"/>
      <point x="592" y="594" type="line"/>
      <point x="716" y="624"/>
      <point x="876" y="662"/>
      <point x="1026" y="698" type="curve"/>
      <point x="994" y="1068" type="line"/>
      <point x="842" y="1020"/>
      <point x="692" y="972"/>
      <point x="566" y="932" type="curve"/>
      <point x="448" y="900" type="line"/>
      <point x="320" y="870"/>
      <point x="170" y="834"/>
      <point x="16" y="798" type="curve"/>
    </contour>
  </outline>
</glyph>
<glyph name="_strokeshortcomb.Eth" format="2">
  <advance width="1470"/>
  <anchor x="781" y="714" name="_center"/>
  <outline>
    <contour>
      <point x="-26" y="532" type="line"/>
      <point x="102" y="540"/>
      <point x="226" y="546"/>
      <point x="330" y="552" type="curve"/>
      <point x="426" y="552" type="line"/>
      <point x="532" y="546"/>
      <point x="650" y="538"/>
      <point x="774" y="532" type="curve"/>
      <point x="850" y="894" type="line"/>
      <point x="726" y="888"/>
      <point x="602" y="880"/>
      <point x="494" y="874" type="curve"/>
      <point x="398" y="874" type="line"/>
      <point x="294" y="880"/>
      <point x="176" y="886"/>
      <point x="50" y="894" type="curve"/>
    </contour>
  </outline>
</glyph>
<glyph name="acutecomb.case" format="2">
  <anchor x="706" y="1004" name="_top"/>
  <anchor x="810" y="1498" name="top"/>
  <outline>
    <contour>
      <point x="494" y="1106" type="curve"/>
      <point x="794" y="1110" type="line"/>
      <point x="950" y="1236"/>
      <point x="1158" y="1410"/>
      <point x="1244" y="1512" type="curve"/>
      <point x="740" y="1502" type="line"/>
      <point x="658" y="1372"/>
      <point x="578" y="1240"/>
    </contour>
  </outline>
</glyph>
<glyph name="brevecomb_acutecomb" format="2">
  <anchor x="702" y="1004" name="_top"/>
  <outline>
    <contour>
      <point x="760" y="1076" type="curve" smooth="yes"/>
      <point x="1048" y="1076"/>
      <point x="1166" y="1196"/>
      <point x="1222" y="1484" type="curve"/>
      <point x="938" y="1484" type="line"/>
      <point x="928" y="1402"/>
      <point x="886" y="1346"/>
      <point x="780" y="1336" type="curve"/>
      <point x="678" y="1346"/>
      <point x="648" y="1394"/>
      <point x="666" y="1496" type="curve"/>
      <point x="376" y="1484" type="line"/>
      <point x="322" y="1206"/>
      <point x="476" y="1076"/>
    </contour>
    <contour>
      <point x="628" y="1528" type="curve"/>
      <point x="894" y="1530" type="line"/>
      <point x="1022" y="1652"/>
      <point x="1190" y="1818"/>
      <point x="1262" y="1914" type="curve"/>
      <point x="830" y="1906" type="line"/>
      <point x="762" y="1782"/>
      <point x="698" y="1656"/>
    </contour>
  </outline>
</glyph>
<glyph name="brevecomb_gravecomb" format="2">
  <anchor x="702" y="1004" name="_top"/>
  <outline>
    <contour>
      <point x="760" y="1076" type="curve" smooth="yes"/>
      <point x="1048" y="1076"/>
      <point x="1166" y="1196"/>
      <point x="1222" y="1484" type="curve"/>
      <point x="938" y="1484" type="line"/>
      <point x="928" y="1402"/>
      <point x="886" y="1346"/>
      <point x="780" y="1336" type="curve"/>
      <point x="678" y="1346"/>
      <point x="648" y="1394"/>
      <point x="666" y="1496" type="curve"/>
      <point x="376" y="1484" type="line"/>
      <point x="322" y="1206"/>
      <point x="476" y="1076"/>
    </contour>
    <contour>
      <point x="758" y="1528" type="curve"/>
      <point x="1010" y="1530" type="line"/>
      <point x="984" y="1660"/>
      <point x="958" y="1786"/>
      <point x="932" y="1914" type="curve"/>
      <point x="536" y="1906" type="line"/>
      <point x="572" y="1810"/>
      <point x="678" y="1648"/>
    </contour>
  </outline>
</glyph>
<glyph name="caroncomb.alt" format="2">
  <anchor x="706" y="1004" name="_topright"/>
  <outline>
    <contour>
      <point x="794" y="1094" type="curve"/>
      <point x="978" y="1098" type="line"/>
      <point x="1066" y="1186"/>
      <point x="1234" y="1364"/>
      <point x="1248" y="1424" type="curve" smooth="yes"/>
      <point x="1270" y="1520"/>
      <point x="1208" y="1592"/>
      <point x="1126" y="1608" type="curve"/>
      <point x="920" y="1590" type="line"/>
      <point x="910" y="1516"/>
      <point x="898" y="1442"/>
      <point x="886" y="1368" type="curve"/>
      <point x="856" y="1276"/>
      <point x="826" y="1184"/>
    </contour>
  </outline>
</glyph>
<glyph name="cedi.BRACKET.140" format="2">
  <advance width="1304"/>
  <outline>
    <contour>
      <point x="424" y="-274" type="curve"/>
      <point x="792" y="-274" type="line"/>
      <point x="840" y="-2"/>
      <point x="894" y="306"/>
      <point x="908" y="384" type="curve"/>
      <point x="1028" y="948" type="line"/>
      <point x="1048" y="1028"/>
      <point x="1124" y="1332"/>
      <point x="1192" y="1606" type="curve"/>
      <point x="824" y="1606" type="line"/>
      <point x="776" y="1332"/>
      <point x="722" y="1026"/>
      <point x="708" y="948" type="curve"/>
      <point x="588" y="384" type="line"/>
      <point x="570" y="310"/>
      <point x="492" y="0"/>
    </contour>
    <contour>
      <point x="732" y="-30" type="curve" smooth="yes"/>
      <point x="796" y="-30"/>
      <point x="1020" y="2"/>
      <point x="1122" y="30" type="curve"/>
      <point x="1198" y="480" type="line"/>
      <point x="1074" y="426"/>
      <point x="874" y="348"/>
      <point x="828" y="348" type="curve"/>
      <point x="608" y="356"/>
      <point x="540" y="530"/>
      <point x="578" y="716" type="curve" smooth="yes"/>
      <point x="624" y="936"/>
      <point x="764" y="1012"/>
      <point x="906" y="1020" type="curve"/>
      <point x="936" y="1020"/>
      <point x="1116" y="954"/>
      <point x="1272" y="882" type="curve"/>
      <point x="1396" y="1308" type="line"/>
      <point x="1226" y="1364"/>
      <point x="990" y="1412"/>
      <point x="914" y="1412" type="curve" smooth="yes"/>
      <point x="444" y="1412"/>
      <point x="188" y="1182"/>
      <point x="104" y="774" type="curve" smooth="yes"/>
      <point x="12" y="334"/>
      <point x="240" y="-30"/>
    </contour>
  </outline>
</glyph>
<glyph name="circumflexcomb.narrow" format="2">
  <anchor x="706" y="1004" name="_top"/>
  <anchor x="812" y="1510" name="top"/>
  <outline>
    <contour>
      <point x="876" y="1106" type="curve"/>
      <point x="1116" y="1110" type="line"/>
      <point x="1084" y="1256"/>
      <point x="1052" y="1402"/>
      <point x="1020" y="1548" type="curve"/>
      <point x="626" y="1548" type="line"/>
      <point x="666" y="1436"/>
      <point x="786" y="1246"/>
    </contour>
    <contour>
      <point x="338" y="1108" type="curve"/>
      <point x="600" y="1108" type="line"/>
      <point x="728" y="1246"/>
      <point x="900" y="1438"/>
      <point x="970" y="1548" type="curve"/>
      <point x="576" y="1548" type="line"/>
      <point x="498" y="1404"/>
      <point x="418" y="1256"/>
    </contour>
  </outline>
</glyph>
<glyph name="circumflexcomb_acutecomb.case" format="2">
  <anchor x="706" y="1004" name="_top"/>
  <outline>
    <contour>
      <point x="1084" y="1408" type="curve"/>
      <point x="1350" y="1410" type="line"/>
      <point x="1478" y="1532"/>
      <point x="1646" y="1698"/>
      <point x="1718" y="1794" type="curve"/>
      <point x="1286" y="1786" type="line"/>
      <point x="1218" y="1662"/>
      <point x="1154" y="1536"/>
    </contour>
    <contour>
      <point x="324" y="1108" type="curve"/>
      <point x="596" y="1108" type="line"/>
      <point x="726" y="1228"/>
      <point x="900" y="1394"/>
      <point x="972" y="1490" type="curve"/>
      <point x="564" y="1490" type="line"/>
      <point x="484" y="1362"/>
      <point x="406" y="1238"/>
    </contour>
    <contour>
      <point x="880" y="1106" type="curve"/>
      <point x="1130" y="1110" type="line"/>
      <point x="1096" y="1236"/>
      <point x="1058" y="1362"/>
      <point x="1026" y="1490" type="curve"/>
      <point x="614" y="1490" type="line"/>
      <point x="658" y="1394"/>
      <point x="786" y="1228"/>
    </contour>
  </outline>
</glyph>
<glyph name="circumflexcomb_gravecomb.case" format="2">
  <anchor x="706" y="1004" name="_top"/>
  <outline>
    <contour>
      <point x="1134" y="1408" type="curve"/>
      <point x="1394" y="1410" type="line"/>
      <point x="1356" y="1542"/>
      <point x="1326" y="1666"/>
      <point x="1308" y="1794" type="curve"/>
      <point x="912" y="1786" type="line"/>
      <point x="966" y="1654"/>
      <point x="1044" y="1528"/>
    </contour>
    <contour>
      <point x="324" y="1108" type="curve"/>
      <point x="596" y="1108" type="line"/>
      <point x="726" y="1228"/>
      <point x="900" y="1394"/>
      <point x="972" y="1490" type="curve"/>
      <point x="564" y="1490" type="line"/>
      <point x="484" y="1362"/>
      <point x="406" y="1238"/>
    </contour>
    <contour>
      <point x="880" y="1106" type="curve"/>
      <point x="1130" y="1110" type="line"/>
      <point x="1096" y="1236"/>
      <point x="1058" y="1362"/>
      <point x="1026" y="1490" type="curve"/>
      <point x="614" y="1490" type="line"/>
      <point x="658" y="1394"/>
      <point x="786" y="1228"/>
    </contour>
  </outline>
</glyph>
<glyph name="circumflexcomb_tildecomb" format="2">
  <anchor x="706" y="1004" name="_top"/>
  <outline>
    <contour>
      <point x="998" y="1540" type="curve" smooth="yes"/>
      <point x="1130" y="1540"/>
      <point x="1234" y="1664"/>
      <point x="1274" y="1884" type="curve"/>
      <point x="1078" y="1884" type="line"/>
      <point x="1056" y="1850"/>
      <point x="1024" y="1808"/>
      <point x="996" y="1804" type="curve"/>
      <point x="956" y="1810"/>
      <point x="854" y="1922"/>
      <point x="720" y="1922" type="curve" smooth="yes"/>
      <point x="580" y="1922"/>
      <point x="468" y="1798"/>
      <point x="428" y="1578" type="curve"/>
      <point x="622" y="1578" type="line"/>
      <point x="644" y="1608"/>
      <point x="684" y="1654"/>
      <point x="714" y="1658" type="curve"/>
      <point x="762" y="1652"/>
      <point x="852" y="1540"/>
    </contour>
    <contour>
      <point x="324" y="1108" type="curve"/>
      <point x="596" y="1108" type="line"/>
      <point x="728" y="1228"/>
      <point x="906" y="1392"/>
      <point x="980" y="1488" type="curve"/>
      <point x="572" y="1488" type="line"/>
      <point x="490" y="1362"/>
      <point x="408" y="1238"/>
    </contour>
    <contour>
      <point x="880" y="1106" type="curve"/>
      <point x="1130" y="1110" type="line"/>
      <point x="1098" y="1236"/>
      <point x="1066" y="1362"/>
      <point x="1034" y="1488" type="curve"/>
      <point x="622" y="1488" type="line"/>
      <point x="666" y="1392"/>
      <point x="788" y="1228"/>
    </contour>
  </outline>
</glyph>
<glyph name="dblgravecomb.case" format="2">
  <anchor x="706" y="1004" name="_top"/>
  <anchor x="812" y="1514" name="top"/>
  <outline>
    <contour>
      <point x="396" y="1106" type="curve"/>
      <point x="658" y="1110" type="line"/>
      <point x="642" y="1244"/>
      <point x="626" y="1376"/>
      <point x="610" y="1512" type="curve"/>
      <point x="174" y="1502" type="line"/>
      <point x="204" y="1402"/>
      <point x="312" y="1232"/>
    </contour>
    <contour>
      <point x="860" y="1106" type="curve"/>
      <point x="1114" y="1110" type="line"/>
      <point x="1114" y="1244"/>
      <point x="1114" y="1376"/>
      <point x="1114" y="1512" type="curve"/>
      <point x="690" y="1502" type="line"/>
      <point x="708" y="1402"/>
      <point x="792" y="1232"/>
    </contour>
  </outline>
</glyph>
<glyph name="gravecomb.case" format="2">
  <anchor x="706" y="1004" name="_top"/>
  <anchor x="810" y="1498" name="top"/>
  <outline>
    <contour>
      <point x="670" y="1106" type="curve"/>
      <point x="960" y="1110" type="line"/>
      <point x="928" y="1244"/>
      <point x="896" y="1376"/>
      <point x="864" y="1512" type="curve"/>
      <point x="394" y="1502" type="line"/>
      <point x="438" y="1402"/>
      <point x="570" y="1232"/>
    </contour>
  </outline>
</glyph>
<glyph name="guarani.BRACKET.140" format="2">
  <advance width="1386"/>
  <outline>
    <contour>
      <point x="762" y="-28" type="curve" smooth="yes"/>
      <point x="870" y="-28"/>
      <point x="1074" y="6"/>
      <point x="1208" y="24" type="curve"/>
      <point x="1218" y="444" type="line"/>
      <point x="1074" y="400"/>
      <point x="856" y="338"/>
      <point x="800" y="338" type="curve"/>
      <point x="604" y="344"/>
      <point x="538" y="532"/>
      <point x="578" y="724" type="curve" smooth="yes"/>
      <point x="628" y="958"/>
      <point x="778" y="1014"/>
      <point x="904" y="1020" type="curve"/>
      <point x="938" y="1020"/>
      <point x="1140" y="954"/>
      <point x="1316" y="882" type="curve"/>
      <point x="1444" y="1310" type="line"/>
      <point x="1250" y="1364"/>
      <point x="980" y="1412"/>
      <point x="894" y="1412" type="curve" smooth="yes"/>
      <point x="464" y="1412"/>
      <point x="198" y="1210"/>
      <point x="106" y="780" type="curve" smooth="yes"/>
      <point x="14" y="352"/>
      <point x="214" y="-28"/>
    </contour>
    <contour>
      <point x="424" y="-274" type="curve"/>
      <point x="792" y="-274" type="line"/>
      <point x="840" y="-2"/>
      <point x="894" y="306"/>
      <point x="908" y="384" type="curve"/>
      <point x="1028" y="948" type="line"/>
      <point x="1048" y="1028"/>
      <point x="1124" y="1332"/>
      <point x="1192" y="1606" type="curve"/>
      <point x="824" y="1606" type="line"/>
      <point x="776" y="1332"/>
      <point x="722" y="1026"/>
      <point x="708" y="948" type="curve"/>
      <point x="588" y="384" type="line"/>
      <point x="570" y="310"/>
      <point x="492" y="0"/>
    </contour>
    <contour>
      <point x="734" y="24" type="curve"/>
      <point x="1208" y="24" type="line"/>
      <point x="1232" y="174"/>
      <point x="1250" y="284"/>
      <point x="1268" y="398" type="curve"/>
      <point x="1310" y="530"/>
      <point x="1338" y="620"/>
      <point x="1374" y="732" type="curve"/>
      <point x="864" y="732" type="line"/>
      <point x="852" y="612"/>
      <point x="844" y="534"/>
      <point x="830" y="398" type="curve"/>
      <point x="802" y="288"/>
      <point x="770" y="166"/>
    </contour>
  </outline>
</glyph>
<glyph name="macroncomb.case" format="2">
  <anchor x="706" y="1004" name="_top"/>
  <anchor x="796" y="1434" name="top"/>
  <outline>
    <contour>
      <point x="356" y="1110" type="line"/>
      <point x="468" y="1114"/>
      <point x="602" y="1120"/>
      <point x="732" y="1126" type="curve"/>
      <point x="860" y="1120"/>
      <point x="988" y="1114"/>
      <point x="1100" y="1110" type="curve"/>
      <point x="1174" y="1462" type="line"/>
      <point x="1062" y="1458"/>
      <point x="930" y="1452"/>
      <point x="798" y="1446" type="curve"/>
      <point x="672" y="1452"/>
      <point x="538" y="1458"/>
      <point x="430" y="1462" type="curve"/>
    </contour>
  </outline>
</glyph>
<glyph name="ogonekcomb.a" format="2">
  <anchor x="494" y="0" name="_ogonek"/>
  <outline>
    <contour>
      <point x="336" y="-456" type="curve" smooth="yes"/>
      <point x="362" y="-456"/>
      <point x="412" y="-450"/>
      <point x="470" y="-440" type="curve"/>
      <point x="522" y="-186" type="line"/>
      <point x="498" y="-190"/>
      <point x="472" y="-196"/>
      <point x="452" y="-198" type="curve"/>
      <point x="392" y="-198"/>
      <point x="360" y="-172"/>
      <point x="368" y="-128" type="curve" smooth="yes"/>
      <point x="376" y="-82"/>
      <point x="448" y="-42"/>
      <point x="554" y="0" type="curve"/>
      <point x="482" y="82" type="line"/>
      <point x="254" y="54" type="line"/>
      <point x="236" y="-30" type="line"/>
      <point x="146" y="-66"/>
      <point x="54" y="-122"/>
      <point x="36" y="-218" type="curve" smooth="yes"/>
      <point x="14" y="-338"/>
      <point x="96" y="-456"/>
    </contour>
  </outline>
</glyph>
<glyph name="tildecomb.case" format="2">
  <anchor x="706" y="1004" name="_top"/>
  <anchor x="808" y="1494" name="top"/>
  <outline>
    <contour>
      <point x="928" y="1078" type="curve" smooth="yes"/>
      <point x="1072" y="1078"/>
      <point x="1186" y="1220"/>
      <point x="1230" y="1474" type="curve"/>
      <point x="1016" y="1474" type="line"/>
      <point x="992" y="1434"/>
      <point x="956" y="1386"/>
      <point x="926" y="1380" type="curve"/>
      <point x="882" y="1388"/>
      <point x="770" y="1516"/>
      <point x="624" y="1516" type="curve" smooth="yes"/>
      <point x="470" y="1516"/>
      <point x="348" y="1374"/>
      <point x="304" y="1120" type="curve"/>
      <point x="516" y="1120" type="line"/>
      <point x="540" y="1156"/>
      <point x="584" y="1208"/>
      <point x="616" y="1214" type="curve"/>
      <point x="670" y="1206"/>
      <point x="768" y="1078"/>
    </contour>
  </outline>
</glyph>
<glyph name="two.dnom" format="2">
  <advance width="872"/>
  <outline>
    <contour>
      <point x="-48" y="0" type="line"/>
      <point x="708" y="0" type="line"/>
      <point x="774" y="324" type="line"/>
      <point x="678" y="314"/>
      <point x="566" y="302"/>
      <point x="468" y="292" type="curve"/>
      <point x="342" y="292" type="line"/>
      <point x="372" y="212" type="line"/>
      <point x="514" y="288" type="line"/>
      <point x="720" y="396"/>
      <point x="812" y="474"/>
      <point x="842" y="614" type="curve" smooth="yes"/>
      <point x="884" y="814"/>
      <point x="736" y="954"/>
      <point x="476" y="954" type="curve" smooth="yes"/>
      <point x="422" y="954"/>
      <point x="224" y="912"/>
      <point x="134" y="892" type="curve"/>
      <point x="100" y="566" type="line"/>
      <point x="196" y="604"/>
      <point x="372" y="668"/>
      <point x="392" y="668" type="curve"/>
      <point x="468" y="664"/>
      <point x="490" y="644"/>
      <point x="478" y="596" type="curve" smooth="yes"/>
      <point x="456" y="512"/>
      <point x="346" y="440"/>
      <point x="156" y="320" type="curve"/>
      <point x="106" y="294"/>
      <point x="50" y="264"/>
      <point x="0" y="238" type="curve"/>
    </contour>
  </outline>
</glyph>
